<svg width="1440" height="1024" viewBox="0 0 1440 1024" fill="none" xmlns="http://www.w3.org/2000/svg">
<g clip-path="url(#clip0_101_2)">
<rect width="1440" height="1024" fill="#323232"/>
<mask id="mask0_101_2" style="mask-type:alpha" maskUnits="userSpaceOnUse" x="0" y="0" width="1440" height="1024">
<rect width="1440" height="1024" fill="#D9D9D9"/>
</mask>
<g mask="url(#mask0_101_2)">
<rect width="1440" height="1024" fill="#444444"/>
<ellipse cx="1026" cy="743.5" rx="450" ry="484.5" fill="#0E0B0B"/>
<ellipse cx="720.002" cy="511.999" rx="431.867" ry="433.539" fill="#EA1461"/>
<ellipse cx="283.444" cy="95.2761" rx="410.428" ry="462.43" fill="#BD0E6D"/>
<ellipse cx="239.407" cy="994.506" rx="414.716" ry="429.704" fill="#0B0B0B"/>
<ellipse cx="1315.03" cy="240.176" rx="381.182" ry="325.677" fill="#8B1010"/>
<g filter="url(#filter0_b_101_2)">
<rect width="1440" height="1024" fill="#D9D9D9" fill-opacity="0.01"/>
</g>
</g>
<g filter="url(#filter1_d_101_2)">
<rect x="78" y="356" width="132" height="60" rx="30" fill="#D9D9D9"/>
</g>
<path d="M132.474 392.1C131.607 392.1 130.787 391.98 130.014 391.74C129.24 391.487 128.634 391.173 128.194 390.8L128.834 389.68C129.26 390 129.807 390.28 130.474 390.52C131.14 390.747 131.84 390.86 132.574 390.86C133.574 390.86 134.294 390.707 134.734 390.4C135.174 390.08 135.394 389.66 135.394 389.14C135.394 388.753 135.267 388.453 135.014 388.24C134.774 388.013 134.454 387.847 134.054 387.74C133.654 387.62 133.207 387.52 132.714 387.44C132.22 387.36 131.727 387.267 131.234 387.16C130.754 387.053 130.314 386.9 129.914 386.7C129.514 386.487 129.187 386.2 128.934 385.84C128.694 385.48 128.574 385 128.574 384.4C128.574 383.827 128.734 383.313 129.054 382.86C129.374 382.407 129.84 382.053 130.454 381.8C131.08 381.533 131.84 381.4 132.734 381.4C133.414 381.4 134.094 381.493 134.774 381.68C135.454 381.853 136.014 382.087 136.454 382.38L135.834 383.52C135.367 383.2 134.867 382.973 134.334 382.84C133.8 382.693 133.267 382.62 132.734 382.62C131.787 382.62 131.087 382.787 130.634 383.12C130.194 383.44 129.974 383.853 129.974 384.36C129.974 384.76 130.094 385.073 130.334 385.3C130.587 385.527 130.914 385.707 131.314 385.84C131.727 385.96 132.174 386.06 132.654 386.14C133.147 386.22 133.634 386.32 134.114 386.44C134.607 386.547 135.054 386.7 135.454 386.9C135.867 387.087 136.194 387.36 136.434 387.72C136.687 388.067 136.814 388.527 136.814 389.1C136.814 389.713 136.64 390.247 136.294 390.7C135.96 391.14 135.467 391.487 134.814 391.74C134.174 391.98 133.394 392.1 132.474 392.1ZM139.419 392V381.5H140.839V392H139.419ZM140.139 379.18C139.846 379.18 139.599 379.08 139.399 378.88C139.199 378.68 139.099 378.44 139.099 378.16C139.099 377.88 139.199 377.647 139.399 377.46C139.599 377.26 139.846 377.16 140.139 377.16C140.433 377.16 140.679 377.253 140.879 377.44C141.079 377.627 141.179 377.86 141.179 378.14C141.179 378.433 141.079 378.68 140.879 378.88C140.693 379.08 140.446 379.18 140.139 379.18ZM150.151 381.4C151.004 381.4 151.751 381.567 152.391 381.9C153.044 382.22 153.551 382.713 153.911 383.38C154.284 384.047 154.471 384.887 154.471 385.9V392H153.051V386.04C153.051 384.933 152.771 384.1 152.211 383.54C151.664 382.967 150.891 382.68 149.891 382.68C149.144 382.68 148.491 382.833 147.931 383.14C147.384 383.433 146.957 383.867 146.651 384.44C146.357 385 146.211 385.68 146.211 386.48V392H144.791V381.5H146.151V384.38L145.931 383.84C146.264 383.08 146.797 382.487 147.531 382.06C148.264 381.62 149.137 381.4 150.151 381.4Z" fill="#6D1243"/>
<g filter="url(#filter2_d_101_2)">
<rect x="78" y="280" width="132" height="60" rx="30" fill="#D9D9D9"/>
</g>
<path d="M131.448 305.4C132.301 305.4 133.041 305.567 133.668 305.9C134.308 306.22 134.801 306.713 135.148 307.38C135.508 308.047 135.688 308.887 135.688 309.9V316H134.268V310.04C134.268 308.933 134.001 308.1 133.468 307.54C132.948 306.967 132.208 306.68 131.248 306.68C130.528 306.68 129.901 306.833 129.368 307.14C128.848 307.433 128.441 307.867 128.148 308.44C127.868 309 127.728 309.68 127.728 310.48V316H126.308V310.04C126.308 308.933 126.041 308.1 125.508 307.54C124.974 306.967 124.228 306.68 123.268 306.68C122.561 306.68 121.941 306.833 121.408 307.14C120.874 307.433 120.461 307.867 120.168 308.44C119.888 309 119.748 309.68 119.748 310.48V316H118.328V305.5H119.688V308.34L119.468 307.84C119.788 307.08 120.301 306.487 121.008 306.06C121.728 305.62 122.574 305.4 123.548 305.4C124.574 305.4 125.448 305.66 126.168 306.18C126.888 306.687 127.354 307.453 127.568 308.48L127.008 308.26C127.314 307.407 127.854 306.72 128.628 306.2C129.414 305.667 130.354 305.4 131.448 305.4ZM143.819 316.1C142.805 316.1 141.892 315.873 141.079 315.42C140.279 314.953 139.645 314.32 139.179 313.52C138.712 312.707 138.479 311.78 138.479 310.74C138.479 309.687 138.712 308.76 139.179 307.96C139.645 307.16 140.279 306.533 141.079 306.08C141.879 305.627 142.792 305.4 143.819 305.4C144.859 305.4 145.779 305.627 146.579 306.08C147.392 306.533 148.025 307.16 148.479 307.96C148.945 308.76 149.179 309.687 149.179 310.74C149.179 311.78 148.945 312.707 148.479 313.52C148.025 314.32 147.392 314.953 146.579 315.42C145.765 315.873 144.845 316.1 143.819 316.1ZM143.819 314.84C144.579 314.84 145.252 314.673 145.839 314.34C146.425 313.993 146.885 313.513 147.219 312.9C147.565 312.273 147.739 311.553 147.739 310.74C147.739 309.913 147.565 309.193 147.219 308.58C146.885 307.967 146.425 307.493 145.839 307.16C145.252 306.813 144.585 306.64 143.839 306.64C143.092 306.64 142.425 306.813 141.839 307.16C141.252 307.493 140.785 307.967 140.439 308.58C140.092 309.193 139.919 309.913 139.919 310.74C139.919 311.553 140.092 312.273 140.439 312.9C140.785 313.513 141.252 313.993 141.839 314.34C142.425 314.673 143.085 314.84 143.819 314.84ZM156.258 316.1C155.258 316.1 154.358 315.873 153.558 315.42C152.771 314.967 152.151 314.34 151.698 313.54C151.244 312.727 151.018 311.793 151.018 310.74C151.018 309.673 151.244 308.74 151.698 307.94C152.151 307.14 152.771 306.52 153.558 306.08C154.358 305.627 155.258 305.4 156.258 305.4C157.178 305.4 157.998 305.607 158.718 306.02C159.451 306.433 160.031 307.04 160.458 307.84C160.898 308.627 161.118 309.593 161.118 310.74C161.118 311.873 160.904 312.84 160.478 313.64C160.051 314.44 159.471 315.053 158.738 315.48C158.018 315.893 157.191 316.1 156.258 316.1ZM156.358 314.84C157.104 314.84 157.771 314.673 158.358 314.34C158.958 313.993 159.424 313.513 159.758 312.9C160.104 312.273 160.278 311.553 160.278 310.74C160.278 309.913 160.104 309.193 159.758 308.58C159.424 307.967 158.958 307.493 158.358 307.16C157.771 306.813 157.104 306.64 156.358 306.64C155.624 306.64 154.964 306.813 154.378 307.16C153.791 307.493 153.324 307.967 152.978 308.58C152.631 309.193 152.458 309.913 152.458 310.74C152.458 311.553 152.631 312.273 152.978 312.9C153.324 313.513 153.791 313.993 154.378 314.34C154.964 314.673 155.624 314.84 156.358 314.84ZM160.318 316V312.84L160.458 310.72L160.258 308.6V301.16H161.678V316H160.318Z" fill="#6D1243"/>
<g filter="url(#filter3_d_101_2)">
<rect x="528" y="509" width="132" height="60" rx="30" fill="#D9D9D9"/>
</g>
<path d="M589.898 545.14L593.398 536.86H594.618L598.098 545.14H596.918L593.698 537.36H594.298L591.078 545.14H589.898Z" fill="#6D1243"/>
<g filter="url(#filter4_d_101_2)">
<rect x="78" y="584" width="132" height="61" rx="30" fill="#DFB7C6"/>
</g>
<path d="M139.611 624L145.651 610.64L146.091 611.28H137.431L138.171 610.58V613.9H136.751V610H147.031V611.02L141.171 624H139.611Z" fill="#6D1243"/>
<g filter="url(#filter5_d_101_2)">
<rect x="378" y="584" width="133" height="61" rx="30" fill="#DFB7C6"/>
</g>
<path d="M443.306 609.88C444.546 609.88 445.593 610.16 446.446 610.72C447.3 611.267 447.946 612.06 448.386 613.1C448.826 614.14 449.046 615.4 449.046 616.88C449.046 618.453 448.773 619.78 448.226 620.86C447.693 621.94 446.946 622.753 445.986 623.3C445.026 623.847 443.913 624.12 442.646 624.12C442.02 624.12 441.42 624.06 440.846 623.94C440.286 623.82 439.78 623.627 439.326 623.36L439.906 622.2C440.266 622.44 440.68 622.613 441.146 622.72C441.626 622.813 442.12 622.86 442.626 622.86C444.133 622.86 445.333 622.38 446.226 621.42C447.133 620.46 447.586 619.027 447.586 617.12C447.586 616.813 447.566 616.447 447.526 616.02C447.5 615.593 447.426 615.167 447.306 614.74L447.806 615.12C447.673 615.813 447.386 616.407 446.946 616.9C446.52 617.38 445.986 617.747 445.346 618C444.72 618.253 444.02 618.38 443.246 618.38C442.326 618.38 441.506 618.207 440.786 617.86C440.08 617.513 439.526 617.027 439.126 616.4C438.726 615.773 438.526 615.033 438.526 614.18C438.526 613.3 438.733 612.54 439.146 611.9C439.56 611.26 440.126 610.767 440.846 610.42C441.58 610.06 442.4 609.88 443.306 609.88ZM443.366 611.1C442.7 611.1 442.106 611.227 441.586 611.48C441.08 611.72 440.68 612.067 440.386 612.52C440.093 612.973 439.946 613.513 439.946 614.14C439.946 615.06 440.26 615.793 440.886 616.34C441.526 616.887 442.386 617.16 443.466 617.16C444.186 617.16 444.813 617.027 445.346 616.76C445.893 616.493 446.313 616.127 446.606 615.66C446.913 615.193 447.066 614.673 447.066 614.1C447.066 613.58 446.926 613.093 446.646 612.64C446.366 612.187 445.953 611.82 445.406 611.54C444.86 611.247 444.18 611.1 443.366 611.1Z" fill="#6D1243"/>
<g filter="url(#filter6_d_101_2)">
<rect x="528" y="584" width="132" height="61" rx="30" fill="#D9D9D9"/>
</g>
<path d="M588.778 616.32V614.904H599.218V616.32H588.778ZM593.986 621.36C593.682 621.36 593.418 621.248 593.194 621.024C592.97 620.8 592.858 620.52 592.858 620.184C592.858 619.848 592.97 619.576 593.194 619.368C593.418 619.144 593.682 619.032 593.986 619.032C594.306 619.032 594.578 619.144 594.802 619.368C595.026 619.576 595.138 619.848 595.138 620.184C595.138 620.52 595.026 620.8 594.802 621.024C594.578 621.248 594.306 621.36 593.986 621.36ZM593.986 612.168C593.682 612.168 593.418 612.056 593.194 611.832C592.97 611.608 592.858 611.336 592.858 611.016C592.858 610.664 592.97 610.384 593.194 610.176C593.418 609.952 593.682 609.84 593.986 609.84C594.306 609.84 594.578 609.952 594.802 610.176C595.026 610.384 595.138 610.664 595.138 611.016C595.138 611.336 595.026 611.608 594.802 611.832C594.578 612.056 594.306 612.168 593.986 612.168Z" fill="#6D1243"/>
<g filter="url(#filter7_d_101_2)">
<rect x="228" y="280" width="133" height="60" rx="30" fill="#D9D9D9"/>
</g>
<path d="M288.483 316.12C287.43 316.12 286.456 315.947 285.563 315.6C284.67 315.24 283.896 314.74 283.243 314.1C282.59 313.46 282.076 312.707 281.703 311.84C281.343 310.973 281.163 310.027 281.163 309C281.163 307.973 281.343 307.027 281.703 306.16C282.076 305.293 282.59 304.54 283.243 303.9C283.91 303.26 284.69 302.767 285.583 302.42C286.476 302.06 287.45 301.88 288.503 301.88C289.516 301.88 290.47 302.053 291.363 302.4C292.256 302.733 293.01 303.24 293.623 303.92L292.683 304.86C292.11 304.273 291.476 303.853 290.783 303.6C290.09 303.333 289.343 303.2 288.543 303.2C287.703 303.2 286.923 303.347 286.203 303.64C285.483 303.92 284.856 304.327 284.323 304.86C283.79 305.38 283.37 305.993 283.063 306.7C282.77 307.393 282.623 308.16 282.623 309C282.623 309.84 282.77 310.613 283.063 311.32C283.37 312.013 283.79 312.627 284.323 313.16C284.856 313.68 285.483 314.087 286.203 314.38C286.923 314.66 287.703 314.8 288.543 314.8C289.343 314.8 290.09 314.667 290.783 314.4C291.476 314.133 292.11 313.707 292.683 313.12L293.623 314.06C293.01 314.74 292.256 315.253 291.363 315.6C290.47 315.947 289.51 316.12 288.483 316.12ZM298.098 308.26H305.498V309.52H298.098V308.26ZM298.258 314.72H306.678V316H296.778V302H306.378V303.28H298.258V314.72Z" fill="#6D1243"/>
<g filter="url(#filter8_d_101_2)">
<rect x="228" y="356" width="133" height="60" rx="30" fill="#D9D9D9"/>
</g>
<path d="M283.641 392.1C282.601 392.1 281.667 391.873 280.841 391.42C280.027 390.953 279.387 390.32 278.921 389.52C278.454 388.707 278.221 387.78 278.221 386.74C278.221 385.687 278.454 384.76 278.921 383.96C279.387 383.16 280.027 382.533 280.841 382.08C281.667 381.627 282.601 381.4 283.641 381.4C284.534 381.4 285.341 381.573 286.061 381.92C286.781 382.267 287.347 382.787 287.761 383.48L286.701 384.2C286.341 383.667 285.894 383.273 285.361 383.02C284.827 382.767 284.247 382.64 283.621 382.64C282.874 382.64 282.201 382.813 281.601 383.16C281.001 383.493 280.527 383.967 280.181 384.58C279.834 385.193 279.661 385.913 279.661 386.74C279.661 387.567 279.834 388.287 280.181 388.9C280.527 389.513 281.001 389.993 281.601 390.34C282.201 390.673 282.874 390.84 283.621 390.84C284.247 390.84 284.827 390.713 285.361 390.46C285.894 390.207 286.341 389.82 286.701 389.3L287.761 390.02C287.347 390.7 286.781 391.22 286.061 391.58C285.341 391.927 284.534 392.1 283.641 392.1ZM294.655 392.1C293.641 392.1 292.728 391.873 291.915 391.42C291.115 390.953 290.481 390.32 290.015 389.52C289.548 388.707 289.315 387.78 289.315 386.74C289.315 385.687 289.548 384.76 290.015 383.96C290.481 383.16 291.115 382.533 291.915 382.08C292.715 381.627 293.628 381.4 294.655 381.4C295.695 381.4 296.615 381.627 297.415 382.08C298.228 382.533 298.861 383.16 299.315 383.96C299.781 384.76 300.015 385.687 300.015 386.74C300.015 387.78 299.781 388.707 299.315 389.52C298.861 390.32 298.228 390.953 297.415 391.42C296.601 391.873 295.681 392.1 294.655 392.1ZM294.655 390.84C295.415 390.84 296.088 390.673 296.675 390.34C297.261 389.993 297.721 389.513 298.055 388.9C298.401 388.273 298.575 387.553 298.575 386.74C298.575 385.913 298.401 385.193 298.055 384.58C297.721 383.967 297.261 383.493 296.675 383.16C296.088 382.813 295.421 382.64 294.675 382.64C293.928 382.64 293.261 382.813 292.675 383.16C292.088 383.493 291.621 383.967 291.275 384.58C290.928 385.193 290.755 385.913 290.755 386.74C290.755 387.553 290.928 388.273 291.275 388.9C291.621 389.513 292.088 389.993 292.675 390.34C293.261 390.673 293.921 390.84 294.655 390.84ZM305.734 392.1C304.867 392.1 304.047 391.98 303.274 391.74C302.5 391.487 301.894 391.173 301.454 390.8L302.094 389.68C302.52 390 303.067 390.28 303.734 390.52C304.4 390.747 305.1 390.86 305.834 390.86C306.834 390.86 307.554 390.707 307.994 390.4C308.434 390.08 308.654 389.66 308.654 389.14C308.654 388.753 308.527 388.453 308.274 388.24C308.034 388.013 307.714 387.847 307.314 387.74C306.914 387.62 306.467 387.52 305.974 387.44C305.48 387.36 304.987 387.267 304.494 387.16C304.014 387.053 303.574 386.9 303.174 386.7C302.774 386.487 302.447 386.2 302.194 385.84C301.954 385.48 301.834 385 301.834 384.4C301.834 383.827 301.994 383.313 302.314 382.86C302.634 382.407 303.1 382.053 303.714 381.8C304.34 381.533 305.1 381.4 305.994 381.4C306.674 381.4 307.354 381.493 308.034 381.68C308.714 381.853 309.274 382.087 309.714 382.38L309.094 383.52C308.627 383.2 308.127 382.973 307.594 382.84C307.06 382.693 306.527 382.62 305.994 382.62C305.047 382.62 304.347 382.787 303.894 383.12C303.454 383.44 303.234 383.853 303.234 384.36C303.234 384.76 303.354 385.073 303.594 385.3C303.847 385.527 304.174 385.707 304.574 385.84C304.987 385.96 305.434 386.06 305.914 386.14C306.407 386.22 306.894 386.32 307.374 386.44C307.867 386.547 308.314 386.7 308.714 386.9C309.127 387.087 309.454 387.36 309.694 387.72C309.947 388.067 310.074 388.527 310.074 389.1C310.074 389.713 309.9 390.247 309.554 390.7C309.22 391.14 308.727 391.487 308.074 391.74C307.434 391.98 306.654 392.1 305.734 392.1Z" fill="#6D1243"/>
<g filter="url(#filter9_d_101_2)">
<rect x="378" y="356" width="133" height="60" rx="30" fill="#D9D9D9"/>
</g>
<path d="M438.577 392.1C437.591 392.1 436.831 391.833 436.297 391.3C435.764 390.767 435.497 390.013 435.497 389.04V379.18H436.917V388.96C436.917 389.573 437.071 390.047 437.377 390.38C437.697 390.713 438.151 390.88 438.737 390.88C439.364 390.88 439.884 390.7 440.297 390.34L440.797 391.36C440.517 391.613 440.177 391.8 439.777 391.92C439.391 392.04 438.991 392.1 438.577 392.1ZM433.617 382.68V381.5H440.117V382.68H433.617ZM447.491 395.98C446.531 395.98 445.611 395.84 444.731 395.56C443.851 395.28 443.138 394.88 442.591 394.36L443.311 393.28C443.805 393.72 444.411 394.067 445.131 394.32C445.865 394.587 446.638 394.72 447.451 394.72C448.785 394.72 449.765 394.407 450.391 393.78C451.018 393.167 451.331 392.207 451.331 390.9V388.28L451.531 386.48L451.391 384.68V381.5H452.751V390.72C452.751 392.533 452.305 393.86 451.411 394.7C450.531 395.553 449.225 395.98 447.491 395.98ZM447.231 391.6C446.231 391.6 445.331 391.387 444.531 390.96C443.731 390.52 443.098 389.913 442.631 389.14C442.178 388.367 441.951 387.48 441.951 386.48C441.951 385.48 442.178 384.6 442.631 383.84C443.098 383.067 443.731 382.467 444.531 382.04C445.331 381.613 446.231 381.4 447.231 381.4C448.165 381.4 449.005 381.593 449.751 381.98C450.498 382.367 451.091 382.94 451.531 383.7C451.971 384.46 452.191 385.387 452.191 386.48C452.191 387.573 451.971 388.5 451.531 389.26C451.091 390.02 450.498 390.6 449.751 391C449.005 391.4 448.165 391.6 447.231 391.6ZM447.371 390.34C448.145 390.34 448.831 390.18 449.431 389.86C450.031 389.527 450.505 389.073 450.851 388.5C451.198 387.913 451.371 387.24 451.371 386.48C451.371 385.72 451.198 385.053 450.851 384.48C450.505 383.907 450.031 383.46 449.431 383.14C448.831 382.807 448.145 382.64 447.371 382.64C446.611 382.64 445.925 382.807 445.311 383.14C444.711 383.46 444.238 383.907 443.891 384.48C443.558 385.053 443.391 385.72 443.391 386.48C443.391 387.24 443.558 387.913 443.891 388.5C444.238 389.073 444.711 389.527 445.311 389.86C445.925 390.18 446.611 390.34 447.371 390.34Z" fill="#6D1243"/>
<g filter="url(#filter10_d_101_2)">
<rect x="378" y="509" width="133" height="60" rx="30" fill="#D9D9D9"/>
</g>
<path d="M450.541 530.16H451.921L445.381 548.88H443.921L440.041 538.58H437.441V537.4H441.081L444.821 547.52H444.481L450.541 530.16Z" fill="#6D1243"/>
<g filter="url(#filter11_d_101_2)">
<rect x="378" y="432" width="133" height="60" rx="30" fill="#D9D9D9"/>
</g>
<path d="M435.939 469V466.68L435.879 466.3V462.42C435.879 461.527 435.626 460.84 435.119 460.36C434.626 459.88 433.886 459.64 432.899 459.64C432.219 459.64 431.572 459.753 430.959 459.98C430.346 460.207 429.826 460.507 429.399 460.88L428.759 459.82C429.292 459.367 429.932 459.02 430.679 458.78C431.426 458.527 432.212 458.4 433.039 458.4C434.399 458.4 435.446 458.74 436.179 459.42C436.926 460.087 437.299 461.107 437.299 462.48V469H435.939ZM432.319 469.1C431.532 469.1 430.846 468.973 430.259 468.72C429.686 468.453 429.246 468.093 428.939 467.64C428.632 467.173 428.479 466.64 428.479 466.04C428.479 465.493 428.606 465 428.859 464.56C429.126 464.107 429.552 463.747 430.139 463.48C430.739 463.2 431.539 463.06 432.539 463.06H436.159V464.12H432.579C431.566 464.12 430.859 464.3 430.459 464.66C430.072 465.02 429.879 465.467 429.879 466C429.879 466.6 430.112 467.08 430.579 467.44C431.046 467.8 431.699 467.98 432.539 467.98C433.339 467.98 434.026 467.8 434.599 467.44C435.186 467.067 435.612 466.533 435.879 465.84L436.199 466.82C435.932 467.513 435.466 468.067 434.799 468.48C434.146 468.893 433.319 469.1 432.319 469.1ZM444.476 469.1C443.489 469.1 442.729 468.833 442.196 468.3C441.662 467.767 441.396 467.013 441.396 466.04V456.18H442.816V465.96C442.816 466.573 442.969 467.047 443.276 467.38C443.596 467.713 444.049 467.88 444.636 467.88C445.262 467.88 445.782 467.7 446.196 467.34L446.696 468.36C446.416 468.613 446.076 468.8 445.676 468.92C445.289 469.04 444.889 469.1 444.476 469.1ZM439.516 459.68V458.5H446.016V459.68H439.516ZM453.39 472.98C452.43 472.98 451.51 472.84 450.63 472.56C449.75 472.28 449.036 471.88 448.49 471.36L449.21 470.28C449.703 470.72 450.31 471.067 451.03 471.32C451.763 471.587 452.536 471.72 453.35 471.72C454.683 471.72 455.663 471.407 456.29 470.78C456.916 470.167 457.23 469.207 457.23 467.9V465.28L457.43 463.48L457.29 461.68V458.5H458.65V467.72C458.65 469.533 458.203 470.86 457.31 471.7C456.43 472.553 455.123 472.98 453.39 472.98ZM453.13 468.6C452.13 468.6 451.23 468.387 450.43 467.96C449.63 467.52 448.996 466.913 448.53 466.14C448.076 465.367 447.85 464.48 447.85 463.48C447.85 462.48 448.076 461.6 448.53 460.84C448.996 460.067 449.63 459.467 450.43 459.04C451.23 458.613 452.13 458.4 453.13 458.4C454.063 458.4 454.903 458.593 455.65 458.98C456.396 459.367 456.99 459.94 457.43 460.7C457.87 461.46 458.09 462.387 458.09 463.48C458.09 464.573 457.87 465.5 457.43 466.26C456.99 467.02 456.396 467.6 455.65 468C454.903 468.4 454.063 468.6 453.13 468.6ZM453.27 467.34C454.043 467.34 454.73 467.18 455.33 466.86C455.93 466.527 456.403 466.073 456.75 465.5C457.096 464.913 457.27 464.24 457.27 463.48C457.27 462.72 457.096 462.053 456.75 461.48C456.403 460.907 455.93 460.46 455.33 460.14C454.73 459.807 454.043 459.64 453.27 459.64C452.51 459.64 451.823 459.807 451.21 460.14C450.61 460.46 450.136 460.907 449.79 461.48C449.456 462.053 449.29 462.72 449.29 463.48C449.29 464.24 449.456 464.913 449.79 465.5C450.136 466.073 450.61 466.527 451.21 466.86C451.823 467.18 452.51 467.34 453.27 467.34Z" fill="#6D1243"/>
<g filter="url(#filter12_d_101_2)">
<rect x="528" y="356" width="132" height="60" rx="30" fill="#D9D9D9"/>
</g>
<path d="M586.537 395V380.16H587.957V395H586.537ZM597.268 384.4C598.121 384.4 598.868 384.567 599.508 384.9C600.161 385.22 600.668 385.713 601.028 386.38C601.401 387.047 601.588 387.887 601.588 388.9V395H600.168V389.04C600.168 387.933 599.888 387.1 599.328 386.54C598.781 385.967 598.008 385.68 597.008 385.68C596.261 385.68 595.608 385.833 595.048 386.14C594.501 386.433 594.074 386.867 593.768 387.44C593.474 388 593.328 388.68 593.328 389.48V395H591.908V384.5H593.268V387.38L593.048 386.84C593.381 386.08 593.914 385.487 594.648 385.06C595.381 384.62 596.254 384.4 597.268 384.4Z" fill="#6D1243"/>
<g filter="url(#filter13_d_101_2)">
<rect x="528" y="432" width="132" height="60" rx="30" fill="#D9D9D9"/>
</g>
<path d="M580.179 469V454.16H581.599V469H580.179ZM589.83 469.1C588.817 469.1 587.904 468.873 587.09 468.42C586.29 467.953 585.657 467.32 585.19 466.52C584.724 465.707 584.49 464.78 584.49 463.74C584.49 462.687 584.724 461.76 585.19 460.96C585.657 460.16 586.29 459.533 587.09 459.08C587.89 458.627 588.804 458.4 589.83 458.4C590.87 458.4 591.79 458.627 592.59 459.08C593.404 459.533 594.037 460.16 594.49 460.96C594.957 461.76 595.19 462.687 595.19 463.74C595.19 464.78 594.957 465.707 594.49 466.52C594.037 467.32 593.404 467.953 592.59 468.42C591.777 468.873 590.857 469.1 589.83 469.1ZM589.83 467.84C590.59 467.84 591.264 467.673 591.85 467.34C592.437 466.993 592.897 466.513 593.23 465.9C593.577 465.273 593.75 464.553 593.75 463.74C593.75 462.913 593.577 462.193 593.23 461.58C592.897 460.967 592.437 460.493 591.85 460.16C591.264 459.813 590.597 459.64 589.85 459.64C589.104 459.64 588.437 459.813 587.85 460.16C587.264 460.493 586.797 460.967 586.45 461.58C586.104 462.193 585.93 462.913 585.93 463.74C585.93 464.553 586.104 465.273 586.45 465.9C586.797 466.513 587.264 466.993 587.85 467.34C588.437 467.673 589.097 467.84 589.83 467.84ZM602.569 472.98C601.609 472.98 600.689 472.84 599.809 472.56C598.929 472.28 598.216 471.88 597.669 471.36L598.389 470.28C598.883 470.72 599.489 471.067 600.209 471.32C600.943 471.587 601.716 471.72 602.529 471.72C603.863 471.72 604.843 471.407 605.469 470.78C606.096 470.167 606.409 469.207 606.409 467.9V465.28L606.609 463.48L606.469 461.68V458.5H607.829V467.72C607.829 469.533 607.383 470.86 606.489 471.7C605.609 472.553 604.303 472.98 602.569 472.98ZM602.309 468.6C601.309 468.6 600.409 468.387 599.609 467.96C598.809 467.52 598.176 466.913 597.709 466.14C597.256 465.367 597.029 464.48 597.029 463.48C597.029 462.48 597.256 461.6 597.709 460.84C598.176 460.067 598.809 459.467 599.609 459.04C600.409 458.613 601.309 458.4 602.309 458.4C603.243 458.4 604.083 458.593 604.829 458.98C605.576 459.367 606.169 459.94 606.609 460.7C607.049 461.46 607.269 462.387 607.269 463.48C607.269 464.573 607.049 465.5 606.609 466.26C606.169 467.02 605.576 467.6 604.829 468C604.083 468.4 603.243 468.6 602.309 468.6ZM602.449 467.34C603.223 467.34 603.909 467.18 604.509 466.86C605.109 466.527 605.583 466.073 605.929 465.5C606.276 464.913 606.449 464.24 606.449 463.48C606.449 462.72 606.276 462.053 605.929 461.48C605.583 460.907 605.109 460.46 604.509 460.14C603.909 459.807 603.223 459.64 602.449 459.64C601.689 459.64 601.003 459.807 600.389 460.14C599.789 460.46 599.316 460.907 598.969 461.48C598.636 462.053 598.469 462.72 598.469 463.48C598.469 464.24 598.636 464.913 598.969 465.5C599.316 466.073 599.789 466.527 600.389 466.86C601.003 467.18 601.689 467.34 602.449 467.34Z" fill="#6D1243"/>
<g filter="url(#filter14_d_101_2)">
<rect x="78" y="432" width="132" height="60" rx="30" fill="#D9D9D9"/>
</g>
<path d="M129.835 469V466.68L129.775 466.3V462.42C129.775 461.527 129.522 460.84 129.015 460.36C128.522 459.88 127.782 459.64 126.795 459.64C126.115 459.64 125.469 459.753 124.855 459.98C124.242 460.207 123.722 460.507 123.295 460.88L122.655 459.82C123.189 459.367 123.829 459.02 124.575 458.78C125.322 458.527 126.109 458.4 126.935 458.4C128.295 458.4 129.342 458.74 130.075 459.42C130.822 460.087 131.195 461.107 131.195 462.48V469H129.835ZM126.215 469.1C125.429 469.1 124.742 468.973 124.155 468.72C123.582 468.453 123.142 468.093 122.835 467.64C122.529 467.173 122.375 466.64 122.375 466.04C122.375 465.493 122.502 465 122.755 464.56C123.022 464.107 123.449 463.747 124.035 463.48C124.635 463.2 125.435 463.06 126.435 463.06H130.055V464.12H126.475C125.462 464.12 124.755 464.3 124.355 464.66C123.969 465.02 123.775 465.467 123.775 466C123.775 466.6 124.009 467.08 124.475 467.44C124.942 467.8 125.595 467.98 126.435 467.98C127.235 467.98 127.922 467.8 128.495 467.44C129.082 467.067 129.509 466.533 129.775 465.84L130.095 466.82C129.829 467.513 129.362 468.067 128.695 468.48C128.042 468.893 127.215 469.1 126.215 469.1ZM137.872 469.1C137.006 469.1 136.186 468.98 135.412 468.74C134.639 468.487 134.032 468.173 133.592 467.8L134.232 466.68C134.659 467 135.206 467.28 135.872 467.52C136.539 467.747 137.239 467.86 137.972 467.86C138.972 467.86 139.692 467.707 140.132 467.4C140.572 467.08 140.792 466.66 140.792 466.14C140.792 465.753 140.666 465.453 140.412 465.24C140.172 465.013 139.852 464.847 139.452 464.74C139.052 464.62 138.606 464.52 138.112 464.44C137.619 464.36 137.126 464.267 136.632 464.16C136.152 464.053 135.712 463.9 135.312 463.7C134.912 463.487 134.586 463.2 134.332 462.84C134.092 462.48 133.972 462 133.972 461.4C133.972 460.827 134.132 460.313 134.452 459.86C134.772 459.407 135.239 459.053 135.852 458.8C136.479 458.533 137.239 458.4 138.132 458.4C138.812 458.4 139.492 458.493 140.172 458.68C140.852 458.853 141.412 459.087 141.852 459.38L141.232 460.52C140.766 460.2 140.266 459.973 139.732 459.84C139.199 459.693 138.666 459.62 138.132 459.62C137.186 459.62 136.486 459.787 136.032 460.12C135.592 460.44 135.372 460.853 135.372 461.36C135.372 461.76 135.492 462.073 135.732 462.3C135.986 462.527 136.312 462.707 136.712 462.84C137.126 462.96 137.572 463.06 138.052 463.14C138.546 463.22 139.032 463.32 139.512 463.44C140.006 463.547 140.452 463.7 140.852 463.9C141.266 464.087 141.592 464.36 141.832 464.72C142.086 465.067 142.212 465.527 142.212 466.1C142.212 466.713 142.039 467.247 141.692 467.7C141.359 468.14 140.866 468.487 140.212 468.74C139.572 468.98 138.792 469.1 137.872 469.1ZM144.818 469V458.5H146.238V469H144.818ZM145.538 456.18C145.245 456.18 144.998 456.08 144.798 455.88C144.598 455.68 144.498 455.44 144.498 455.16C144.498 454.88 144.598 454.647 144.798 454.46C144.998 454.26 145.245 454.16 145.538 454.16C145.831 454.16 146.078 454.253 146.278 454.44C146.478 454.627 146.578 454.86 146.578 455.14C146.578 455.433 146.478 455.68 146.278 455.88C146.091 456.08 145.845 456.18 145.538 456.18ZM155.549 458.4C156.402 458.4 157.149 458.567 157.789 458.9C158.442 459.22 158.949 459.713 159.309 460.38C159.682 461.047 159.869 461.887 159.869 462.9V469H158.449V463.04C158.449 461.933 158.169 461.1 157.609 460.54C157.062 459.967 156.289 459.68 155.289 459.68C154.542 459.68 153.889 459.833 153.329 460.14C152.782 460.433 152.356 460.867 152.049 461.44C151.756 462 151.609 462.68 151.609 463.48V469H150.189V458.5H151.549V461.38L151.329 460.84C151.662 460.08 152.196 459.487 152.929 459.06C153.662 458.62 154.536 458.4 155.549 458.4Z" fill="#6D1243"/>
<g filter="url(#filter15_d_101_2)">
<rect x="78" y="509" width="132" height="60" rx="30" fill="#D9D9D9"/>
</g>
<path d="M142.609 548.88C141.876 547.667 141.302 546.267 140.889 544.68C140.489 543.08 140.289 541.36 140.289 539.52C140.289 537.68 140.489 535.96 140.889 534.36C141.302 532.747 141.876 531.347 142.609 530.16H143.969C143.182 531.533 142.602 532.993 142.229 534.54C141.869 536.073 141.689 537.733 141.689 539.52C141.689 541.307 141.869 542.973 142.229 544.52C142.602 546.053 143.182 547.507 143.969 548.88H142.609Z" fill="#6D1243"/>
<g filter="url(#filter16_d_101_2)">
<rect x="228" y="432" width="133" height="60" rx="30" fill="#D9D9D9"/>
</g>
<path d="M280.462 469V466.68L280.402 466.3V462.42C280.402 461.527 280.149 460.84 279.642 460.36C279.149 459.88 278.409 459.64 277.422 459.64C276.742 459.64 276.096 459.753 275.482 459.98C274.869 460.207 274.349 460.507 273.922 460.88L273.282 459.82C273.816 459.367 274.456 459.02 275.202 458.78C275.949 458.527 276.736 458.4 277.562 458.4C278.922 458.4 279.969 458.74 280.702 459.42C281.449 460.087 281.822 461.107 281.822 462.48V469H280.462ZM276.842 469.1C276.056 469.1 275.369 468.973 274.782 468.72C274.209 468.453 273.769 468.093 273.462 467.64C273.156 467.173 273.002 466.64 273.002 466.04C273.002 465.493 273.129 465 273.382 464.56C273.649 464.107 274.076 463.747 274.662 463.48C275.262 463.2 276.062 463.06 277.062 463.06H280.682V464.12H277.102C276.089 464.12 275.382 464.3 274.982 464.66C274.596 465.02 274.402 465.467 274.402 466C274.402 466.6 274.636 467.08 275.102 467.44C275.569 467.8 276.222 467.98 277.062 467.98C277.862 467.98 278.549 467.8 279.122 467.44C279.709 467.067 280.136 466.533 280.402 465.84L280.722 466.82C280.456 467.513 279.989 468.067 279.322 468.48C278.669 468.893 277.842 469.1 276.842 469.1ZM290.039 469.1C288.999 469.1 288.066 468.873 287.239 468.42C286.426 467.953 285.786 467.32 285.319 466.52C284.853 465.707 284.619 464.78 284.619 463.74C284.619 462.687 284.853 461.76 285.319 460.96C285.786 460.16 286.426 459.533 287.239 459.08C288.066 458.627 288.999 458.4 290.039 458.4C290.933 458.4 291.739 458.573 292.459 458.92C293.179 459.267 293.746 459.787 294.159 460.48L293.099 461.2C292.739 460.667 292.293 460.273 291.759 460.02C291.226 459.767 290.646 459.64 290.019 459.64C289.273 459.64 288.599 459.813 287.999 460.16C287.399 460.493 286.926 460.967 286.579 461.58C286.233 462.193 286.059 462.913 286.059 463.74C286.059 464.567 286.233 465.287 286.579 465.9C286.926 466.513 287.399 466.993 287.999 467.34C288.599 467.673 289.273 467.84 290.019 467.84C290.646 467.84 291.226 467.713 291.759 467.46C292.293 467.207 292.739 466.82 293.099 466.3L294.159 467.02C293.746 467.7 293.179 468.22 292.459 468.58C291.739 468.927 290.933 469.1 290.039 469.1ZM301.053 469.1C300.04 469.1 299.126 468.873 298.313 468.42C297.513 467.953 296.88 467.32 296.413 466.52C295.946 465.707 295.713 464.78 295.713 463.74C295.713 462.687 295.946 461.76 296.413 460.96C296.88 460.16 297.513 459.533 298.313 459.08C299.113 458.627 300.026 458.4 301.053 458.4C302.093 458.4 303.013 458.627 303.813 459.08C304.626 459.533 305.26 460.16 305.713 460.96C306.18 461.76 306.413 462.687 306.413 463.74C306.413 464.78 306.18 465.707 305.713 466.52C305.26 467.32 304.626 467.953 303.813 468.42C303 468.873 302.08 469.1 301.053 469.1ZM301.053 467.84C301.813 467.84 302.486 467.673 303.073 467.34C303.66 466.993 304.12 466.513 304.453 465.9C304.8 465.273 304.973 464.553 304.973 463.74C304.973 462.913 304.8 462.193 304.453 461.58C304.12 460.967 303.66 460.493 303.073 460.16C302.486 459.813 301.82 459.64 301.073 459.64C300.326 459.64 299.66 459.813 299.073 460.16C298.486 460.493 298.02 460.967 297.673 461.58C297.326 462.193 297.153 462.913 297.153 463.74C297.153 464.553 297.326 465.273 297.673 465.9C298.02 466.513 298.486 466.993 299.073 467.34C299.66 467.673 300.32 467.84 301.053 467.84ZM312.132 469.1C311.265 469.1 310.445 468.98 309.672 468.74C308.899 468.487 308.292 468.173 307.852 467.8L308.492 466.68C308.919 467 309.465 467.28 310.132 467.52C310.799 467.747 311.499 467.86 312.232 467.86C313.232 467.86 313.952 467.707 314.392 467.4C314.832 467.08 315.052 466.66 315.052 466.14C315.052 465.753 314.925 465.453 314.672 465.24C314.432 465.013 314.112 464.847 313.712 464.74C313.312 464.62 312.865 464.52 312.372 464.44C311.879 464.36 311.385 464.267 310.892 464.16C310.412 464.053 309.972 463.9 309.572 463.7C309.172 463.487 308.845 463.2 308.592 462.84C308.352 462.48 308.232 462 308.232 461.4C308.232 460.827 308.392 460.313 308.712 459.86C309.032 459.407 309.499 459.053 310.112 458.8C310.739 458.533 311.499 458.4 312.392 458.4C313.072 458.4 313.752 458.493 314.432 458.68C315.112 458.853 315.672 459.087 316.112 459.38L315.492 460.52C315.025 460.2 314.525 459.973 313.992 459.84C313.459 459.693 312.925 459.62 312.392 459.62C311.445 459.62 310.745 459.787 310.292 460.12C309.852 460.44 309.632 460.853 309.632 461.36C309.632 461.76 309.752 462.073 309.992 462.3C310.245 462.527 310.572 462.707 310.972 462.84C311.385 462.96 311.832 463.06 312.312 463.14C312.805 463.22 313.292 463.32 313.772 463.44C314.265 463.547 314.712 463.7 315.112 463.9C315.525 464.087 315.852 464.36 316.092 464.72C316.345 465.067 316.472 465.527 316.472 466.1C316.472 466.713 316.299 467.247 315.952 467.7C315.619 468.14 315.125 468.487 314.472 468.74C313.832 468.98 313.052 469.1 312.132 469.1Z" fill="#6D1243"/>
<g filter="url(#filter17_d_101_2)">
<rect x="228" y="509" width="133" height="60" rx="30" fill="#D9D9D9"/>
</g>
<path d="M293.369 548.88H292.009C292.809 547.507 293.389 546.053 293.749 544.52C294.122 542.973 294.309 541.307 294.309 539.52C294.309 537.733 294.122 536.073 293.749 534.54C293.389 532.993 292.809 531.533 292.009 530.16H293.369C294.129 531.347 294.709 532.747 295.109 534.36C295.509 535.96 295.709 537.68 295.709 539.52C295.709 541.36 295.509 543.08 295.109 544.68C294.709 546.267 294.129 547.667 293.369 548.88Z" fill="#6D1243"/>
<g filter="url(#filter18_d_101_2)">
<rect x="228" y="584" width="133" height="61" rx="30" fill="#DFB7C6"/>
</g>
<path d="M293.983 624.12C292.863 624.12 291.896 623.96 291.083 623.64C290.283 623.32 289.663 622.86 289.223 622.26C288.796 621.647 288.583 620.927 288.583 620.1C288.583 619.3 288.79 618.62 289.203 618.06C289.63 617.487 290.243 617.047 291.043 616.74C291.856 616.433 292.836 616.28 293.983 616.28C295.116 616.28 296.09 616.433 296.903 616.74C297.716 617.047 298.336 617.487 298.763 618.06C299.203 618.62 299.423 619.3 299.423 620.1C299.423 620.927 299.203 621.647 298.763 622.26C298.323 622.86 297.696 623.32 296.883 623.64C296.07 623.96 295.103 624.12 293.983 624.12ZM293.983 622.9C295.223 622.9 296.19 622.647 296.883 622.14C297.59 621.633 297.943 620.947 297.943 620.08C297.943 619.213 297.59 618.533 296.883 618.04C296.19 617.533 295.223 617.28 293.983 617.28C292.743 617.28 291.776 617.533 291.083 618.04C290.39 618.533 290.043 619.213 290.043 620.08C290.043 620.947 290.39 621.633 291.083 622.14C291.776 622.647 292.743 622.9 293.983 622.9ZM293.983 617.1C292.943 617.1 292.056 616.96 291.323 616.68C290.603 616.4 290.05 616 289.663 615.48C289.276 614.947 289.083 614.313 289.083 613.58C289.083 612.807 289.283 612.147 289.683 611.6C290.096 611.04 290.67 610.613 291.403 610.32C292.136 610.027 292.996 609.88 293.983 609.88C294.97 609.88 295.83 610.027 296.563 610.32C297.31 610.613 297.89 611.04 298.303 611.6C298.716 612.147 298.923 612.807 298.923 613.58C298.923 614.313 298.73 614.947 298.343 615.48C297.956 616 297.39 616.4 296.643 616.68C295.91 616.96 295.023 617.1 293.983 617.1ZM293.983 616.14C295.076 616.14 295.93 615.913 296.543 615.46C297.156 615.007 297.463 614.4 297.463 613.64C297.463 612.84 297.143 612.22 296.503 611.78C295.876 611.327 295.036 611.1 293.983 611.1C292.93 611.1 292.09 611.327 291.463 611.78C290.836 612.22 290.523 612.833 290.523 613.62C290.523 614.393 290.823 615.007 291.423 615.46C292.036 615.913 292.89 616.14 293.983 616.14Z" fill="#6D1243"/>
<g filter="url(#filter19_d_101_2)">
<rect x="528" y="660" width="132" height="60" rx="30" fill="#D9D9D9"/>
</g>
<path d="M590.029 695L593.581 690.392L593.565 690.952L590.189 686.6H591.469L594.237 690.2L593.757 690.184L596.525 686.6H597.773L594.365 691L594.381 690.392L597.965 695H596.669L593.741 691.16L594.189 691.224L591.309 695H590.029Z" fill="#6D1243"/>
<g filter="url(#filter20_d_101_2)">
<rect x="378" y="737" width="133" height="60" rx="30" fill="#DFB7C6"/>
</g>
<path d="M445.575 774.12C444.562 774.12 443.602 773.96 442.695 773.64C441.802 773.307 441.082 772.867 440.535 772.32L441.235 771.18C441.689 771.647 442.295 772.033 443.055 772.34C443.829 772.647 444.669 772.8 445.575 772.8C446.735 772.8 447.622 772.547 448.235 772.04C448.862 771.533 449.175 770.853 449.175 770C449.175 769.147 448.869 768.467 448.255 767.96C447.655 767.453 446.702 767.2 445.395 767.2H444.395V766.14L448.715 760.72L448.915 761.28H441.115V760H450.115V761.02L445.795 766.44L445.095 765.98H445.635C447.315 765.98 448.569 766.353 449.395 767.1C450.235 767.847 450.655 768.807 450.655 769.98C450.655 770.767 450.469 771.473 450.095 772.1C449.722 772.727 449.155 773.22 448.395 773.58C447.649 773.94 446.709 774.12 445.575 774.12Z" fill="#6D1243"/>
<g filter="url(#filter21_d_101_2)">
<rect x="378" y="660" width="133" height="60" rx="30" fill="#DFB7C6"/>
</g>
<path d="M444.686 698.12C443.446 698.12 442.4 697.847 441.546 697.3C440.693 696.74 440.046 695.94 439.606 694.9C439.166 693.847 438.946 692.587 438.946 691.12C438.946 689.533 439.213 688.207 439.746 687.14C440.293 686.06 441.046 685.247 442.006 684.7C442.966 684.153 444.08 683.88 445.346 683.88C445.973 683.88 446.573 683.94 447.146 684.06C447.72 684.18 448.226 684.373 448.666 684.64L448.086 685.8C447.726 685.56 447.313 685.393 446.846 685.3C446.38 685.193 445.886 685.14 445.366 685.14C443.86 685.14 442.653 685.62 441.746 686.58C440.853 687.54 440.406 688.973 440.406 690.88C440.406 691.173 440.42 691.54 440.446 691.98C440.486 692.407 440.566 692.833 440.686 693.26L440.186 692.88C440.333 692.187 440.62 691.6 441.046 691.12C441.473 690.627 442.006 690.253 442.646 690C443.286 689.747 443.986 689.62 444.746 689.62C445.68 689.62 446.5 689.793 447.206 690.14C447.913 690.487 448.466 690.973 448.866 691.6C449.266 692.227 449.466 692.967 449.466 693.82C449.466 694.687 449.26 695.447 448.846 696.1C448.433 696.74 447.86 697.24 447.126 697.6C446.406 697.947 445.593 698.12 444.686 698.12ZM444.626 696.9C445.293 696.9 445.88 696.78 446.386 696.54C446.906 696.287 447.313 695.933 447.606 695.48C447.9 695.013 448.046 694.473 448.046 693.86C448.046 692.94 447.726 692.207 447.086 691.66C446.46 691.113 445.606 690.84 444.526 690.84C443.806 690.84 443.18 690.973 442.646 691.24C442.113 691.507 441.693 691.873 441.386 692.34C441.08 692.793 440.926 693.313 440.926 693.9C440.926 694.407 441.066 694.893 441.346 695.36C441.626 695.813 442.04 696.187 442.586 696.48C443.146 696.76 443.826 696.9 444.626 696.9Z" fill="#6D1243"/>
<g filter="url(#filter22_d_101_2)">
<rect x="378" y="813" width="133" height="60" rx="30" fill="#D9D9D9"/>
</g>
<path d="M443.001 849.92L443.881 846.22L444.041 847.08C443.734 847.08 443.474 846.98 443.261 846.78C443.061 846.58 442.961 846.32 442.961 846C442.961 845.68 443.061 845.42 443.261 845.22C443.474 845.02 443.728 844.92 444.021 844.92C444.328 844.92 444.574 845.027 444.761 845.24C444.961 845.453 445.061 845.707 445.061 846C445.061 846.107 445.054 846.213 445.041 846.32C445.028 846.427 445.001 846.547 444.961 846.68C444.921 846.813 444.868 846.973 444.801 847.16L443.961 849.92H443.001Z" fill="#6D1243"/>
<g filter="url(#filter23_d_101_2)">
<rect x="78" y="889" width="582" height="60" rx="30" fill="#D9D9D9"/>
</g>
<path d="M359.778 921.536V920.12H370.218V921.536H359.778ZM359.778 927.08V925.664H370.218V927.08H359.778Z" fill="#6D1243"/>
<g filter="url(#filter24_d_101_2)">
<rect x="528" y="813" width="132" height="60" rx="30" fill="#D9D9D9"/>
</g>
<path d="M594.368 848.24V839.76H595.628V848.24H594.368ZM590.648 844.6V843.42H599.348V844.6H590.648Z" fill="#6D1243"/>
<g filter="url(#filter25_d_101_2)">
<rect x="528" y="737" width="132" height="60" rx="30" fill="#D9D9D9"/>
</g>
<path d="M592.382 768.2V766.96H597.622V768.2H592.382Z" fill="#6D1243"/>
<g filter="url(#filter26_d_101_2)">
<rect x="378" y="280" width="282" height="60" rx="30" fill="#DFB7C6"/>
</g>
<path d="M502.605 319L495.357 310.672L502.605 302.344H521.637V319H502.605ZM503.493 317.296H519.909V304.048H503.493L497.685 310.672L503.493 317.296ZM506.973 316.36L505.701 315.16L509.973 310.672L505.701 306.184L506.949 304.984L511.173 309.424L515.397 304.984L516.645 306.184L512.373 310.672L516.645 315.16L515.373 316.36L511.173 311.944L506.973 316.36Z" fill="#6D1243"/>
<g filter="url(#filter27_d_101_2)">
<rect x="78" y="660" width="132" height="60" rx="30" fill="#DFB7C6"/>
</g>
<path d="M136.189 694.32V693.28L143.609 684H145.209L137.849 693.28L137.069 693.04H148.329V694.32H136.189ZM144.089 698V694.32L144.129 693.04V689.8H145.529V698H144.089Z" fill="#6D1243"/>
<g filter="url(#filter28_d_101_2)">
<rect x="78" y="737" width="132" height="60" rx="30" fill="#DFB7C6"/>
</g>
<path d="M141.867 774V760.6L142.507 761.28H138.567V760H143.307V774H141.867Z" fill="#6D1243"/>
<g filter="url(#filter29_d_101_2)">
<rect x="78" y="813" width="132" height="60" rx="30" fill="#D9D9D9"/>
</g>
<path d="M138.648 850V848.82H147.348V850H138.648ZM142.368 846.54V838.18H143.628V846.54H142.368ZM138.648 842.96V841.76H147.348V842.96H138.648Z" fill="#6D1243"/>
<g filter="url(#filter30_d_101_2)">
<rect x="228" y="660" width="133" height="60" rx="30" fill="#DFB7C6"/>
</g>
<path d="M293.796 698.12C292.796 698.12 291.843 697.96 290.936 697.64C290.029 697.307 289.309 696.867 288.776 696.32L289.476 695.18C289.916 695.647 290.516 696.033 291.276 696.34C292.049 696.647 292.883 696.8 293.776 696.8C294.963 696.8 295.863 696.54 296.476 696.02C297.103 695.487 297.416 694.793 297.416 693.94C297.416 693.34 297.269 692.827 296.976 692.4C296.696 691.96 296.216 691.62 295.536 691.38C294.856 691.14 293.923 691.02 292.736 691.02H289.756L290.476 684H298.136V685.28H291.056L291.796 684.58L291.176 690.46L290.436 689.74H293.056C294.469 689.74 295.603 689.913 296.456 690.26C297.309 690.607 297.923 691.093 298.296 691.72C298.683 692.333 298.876 693.053 298.876 693.88C298.876 694.667 298.689 695.387 298.316 696.04C297.943 696.68 297.383 697.187 296.636 697.56C295.889 697.933 294.943 698.12 293.796 698.12Z" fill="#6D1243"/>
<g filter="url(#filter31_d_101_2)">
<rect x="228" y="737" width="133" height="60" rx="30" fill="#DFB7C6"/>
</g>
<path d="M289.096 774V772.98L294.916 767.28C295.45 766.76 295.85 766.307 296.116 765.92C296.383 765.52 296.563 765.147 296.656 764.8C296.75 764.453 296.796 764.127 296.796 763.82C296.796 763.007 296.516 762.367 295.956 761.9C295.41 761.433 294.596 761.2 293.516 761.2C292.69 761.2 291.956 761.327 291.316 761.58C290.69 761.833 290.15 762.227 289.696 762.76L288.676 761.88C289.223 761.24 289.923 760.747 290.776 760.4C291.63 760.053 292.583 759.88 293.636 759.88C294.583 759.88 295.403 760.033 296.096 760.34C296.79 760.633 297.323 761.067 297.696 761.64C298.083 762.213 298.276 762.887 298.276 763.66C298.276 764.113 298.21 764.56 298.076 765C297.956 765.44 297.73 765.907 297.396 766.4C297.076 766.88 296.603 767.427 295.976 768.04L290.636 773.28L290.236 772.72H298.916V774H289.096Z" fill="#6D1243"/>
<g filter="url(#filter32_d_101_2)">
<rect x="228" y="813" width="133" height="60" rx="30" fill="#DFB7C6"/>
</g>
<path d="M293.999 850.12C292.919 850.12 291.959 849.84 291.119 849.28C290.279 848.707 289.619 847.893 289.139 846.84C288.659 845.773 288.419 844.493 288.419 843C288.419 841.507 288.659 840.233 289.139 839.18C289.619 838.113 290.279 837.3 291.119 836.74C291.959 836.167 292.919 835.88 293.999 835.88C295.079 835.88 296.039 836.167 296.879 836.74C297.719 837.3 298.379 838.113 298.859 839.18C299.352 840.233 299.599 841.507 299.599 843C299.599 844.493 299.352 845.773 298.859 846.84C298.379 847.893 297.719 848.707 296.879 849.28C296.039 849.84 295.079 850.12 293.999 850.12ZM293.999 848.8C294.826 848.8 295.546 848.58 296.159 848.14C296.772 847.687 297.252 847.033 297.599 846.18C297.946 845.313 298.119 844.253 298.119 843C298.119 841.747 297.946 840.693 297.599 839.84C297.252 838.973 296.772 838.32 296.159 837.88C295.546 837.427 294.826 837.2 293.999 837.2C293.199 837.2 292.486 837.427 291.859 837.88C291.232 838.32 290.746 838.973 290.399 839.84C290.052 840.693 289.879 841.747 289.879 843C289.879 844.253 290.052 845.313 290.399 846.18C290.746 847.033 291.232 847.687 291.859 848.14C292.486 848.58 293.199 848.8 293.999 848.8Z" fill="#6D1243"/>
<g filter="url(#filter33_d_101_2)">
<rect x="720" y="105" width="649" height="126" rx="30" fill="#DFB7C6"/>
</g>
<rect x="720" y="280" width="649" height="669" rx="30" fill="#D9D9D9"/>
</g>
<defs>
<filter id="filter0_b_101_2" x="-492.8" y="-492.8" width="2425.6" height="2009.6" filterUnits="userSpaceOnUse" color-interpolation-filters="sRGB">
<feFlood flood-opacity="0" result="BackgroundImageFix"/>
<feGaussianBlur in="BackgroundImageFix" stdDeviation="246.4"/>
<feComposite in2="SourceAlpha" operator="in" result="effect1_backgroundBlur_101_2"/>
<feBlend mode="normal" in="SourceGraphic" in2="effect1_backgroundBlur_101_2" result="shape"/>
</filter>
<filter id="filter1_d_101_2" x="51" y="333" width="186" height="114" filterUnits="userSpaceOnUse" color-interpolation-filters="sRGB">
<feFlood flood-opacity="0" result="BackgroundImageFix"/>
<feColorMatrix in="SourceAlpha" type="matrix" values="0 0 0 0 0 0 0 0 0 0 0 0 0 0 0 0 0 0 127 0" result="hardAlpha"/>
<feMorphology radius="7" operator="dilate" in="SourceAlpha" result="effect1_dropShadow_101_2"/>
<feOffset dy="4"/>
<feGaussianBlur stdDeviation="10"/>
<feComposite in2="hardAlpha" operator="out"/>
<feColorMatrix type="matrix" values="0 0 0 0 1 0 0 0 0 0.229167 0 0 0 0 0.691667 0 0 0 0.4 0"/>
<feBlend mode="normal" in2="BackgroundImageFix" result="effect1_dropShadow_101_2"/>
<feBlend mode="normal" in="SourceGraphic" in2="effect1_dropShadow_101_2" result="shape"/>
</filter>
<filter id="filter2_d_101_2" x="51" y="257" width="186" height="114" filterUnits="userSpaceOnUse" color-interpolation-filters="sRGB">
<feFlood flood-opacity="0" result="BackgroundImageFix"/>
<feColorMatrix in="SourceAlpha" type="matrix" values="0 0 0 0 0 0 0 0 0 0 0 0 0 0 0 0 0 0 127 0" result="hardAlpha"/>
<feMorphology radius="7" operator="dilate" in="SourceAlpha" result="effect1_dropShadow_101_2"/>
<feOffset dy="4"/>
<feGaussianBlur stdDeviation="10"/>
<feComposite in2="hardAlpha" operator="out"/>
<feColorMatrix type="matrix" values="0 0 0 0 1 0 0 0 0 0.229167 0 0 0 0 0.691667 0 0 0 0.4 0"/>
<feBlend mode="normal" in2="BackgroundImageFix" result="effect1_dropShadow_101_2"/>
<feBlend mode="normal" in="SourceGraphic" in2="effect1_dropShadow_101_2" result="shape"/>
</filter>
<filter id="filter3_d_101_2" x="501" y="486" width="186" height="114" filterUnits="userSpaceOnUse" color-interpolation-filters="sRGB">
<feFlood flood-opacity="0" result="BackgroundImageFix"/>
<feColorMatrix in="SourceAlpha" type="matrix" values="0 0 0 0 0 0 0 0 0 0 0 0 0 0 0 0 0 0 127 0" result="hardAlpha"/>
<feMorphology radius="7" operator="dilate" in="SourceAlpha" result="effect1_dropShadow_101_2"/>
<feOffset dy="4"/>
<feGaussianBlur stdDeviation="10"/>
<feComposite in2="hardAlpha" operator="out"/>
<feColorMatrix type="matrix" values="0 0 0 0 1 0 0 0 0 0.229167 0 0 0 0 0.691667 0 0 0 0.4 0"/>
<feBlend mode="normal" in2="BackgroundImageFix" result="effect1_dropShadow_101_2"/>
<feBlend mode="normal" in="SourceGraphic" in2="effect1_dropShadow_101_2" result="shape"/>
</filter>
<filter id="filter4_d_101_2" x="51" y="561" width="186" height="115" filterUnits="userSpaceOnUse" color-interpolation-filters="sRGB">
<feFlood flood-opacity="0" result="BackgroundImageFix"/>
<feColorMatrix in="SourceAlpha" type="matrix" values="0 0 0 0 0 0 0 0 0 0 0 0 0 0 0 0 0 0 127 0" result="hardAlpha"/>
<feMorphology radius="7" operator="dilate" in="SourceAlpha" result="effect1_dropShadow_101_2"/>
<feOffset dy="4"/>
<feGaussianBlur stdDeviation="10"/>
<feComposite in2="hardAlpha" operator="out"/>
<feColorMatrix type="matrix" values="0 0 0 0 1 0 0 0 0 0.229167 0 0 0 0 0.691667 0 0 0 0.4 0"/>
<feBlend mode="normal" in2="BackgroundImageFix" result="effect1_dropShadow_101_2"/>
<feBlend mode="normal" in="SourceGraphic" in2="effect1_dropShadow_101_2" result="shape"/>
</filter>
<filter id="filter5_d_101_2" x="351" y="561" width="187" height="115" filterUnits="userSpaceOnUse" color-interpolation-filters="sRGB">
<feFlood flood-opacity="0" result="BackgroundImageFix"/>
<feColorMatrix in="SourceAlpha" type="matrix" values="0 0 0 0 0 0 0 0 0 0 0 0 0 0 0 0 0 0 127 0" result="hardAlpha"/>
<feMorphology radius="7" operator="dilate" in="SourceAlpha" result="effect1_dropShadow_101_2"/>
<feOffset dy="4"/>
<feGaussianBlur stdDeviation="10"/>
<feComposite in2="hardAlpha" operator="out"/>
<feColorMatrix type="matrix" values="0 0 0 0 1 0 0 0 0 0.229167 0 0 0 0 0.691667 0 0 0 0.4 0"/>
<feBlend mode="normal" in2="BackgroundImageFix" result="effect1_dropShadow_101_2"/>
<feBlend mode="normal" in="SourceGraphic" in2="effect1_dropShadow_101_2" result="shape"/>
</filter>
<filter id="filter6_d_101_2" x="501" y="561" width="186" height="115" filterUnits="userSpaceOnUse" color-interpolation-filters="sRGB">
<feFlood flood-opacity="0" result="BackgroundImageFix"/>
<feColorMatrix in="SourceAlpha" type="matrix" values="0 0 0 0 0 0 0 0 0 0 0 0 0 0 0 0 0 0 127 0" result="hardAlpha"/>
<feMorphology radius="7" operator="dilate" in="SourceAlpha" result="effect1_dropShadow_101_2"/>
<feOffset dy="4"/>
<feGaussianBlur stdDeviation="10"/>
<feComposite in2="hardAlpha" operator="out"/>
<feColorMatrix type="matrix" values="0 0 0 0 1 0 0 0 0 0.229167 0 0 0 0 0.691667 0 0 0 0.4 0"/>
<feBlend mode="normal" in2="BackgroundImageFix" result="effect1_dropShadow_101_2"/>
<feBlend mode="normal" in="SourceGraphic" in2="effect1_dropShadow_101_2" result="shape"/>
</filter>
<filter id="filter7_d_101_2" x="201" y="257" width="187" height="114" filterUnits="userSpaceOnUse" color-interpolation-filters="sRGB">
<feFlood flood-opacity="0" result="BackgroundImageFix"/>
<feColorMatrix in="SourceAlpha" type="matrix" values="0 0 0 0 0 0 0 0 0 0 0 0 0 0 0 0 0 0 127 0" result="hardAlpha"/>
<feMorphology radius="7" operator="dilate" in="SourceAlpha" result="effect1_dropShadow_101_2"/>
<feOffset dy="4"/>
<feGaussianBlur stdDeviation="10"/>
<feComposite in2="hardAlpha" operator="out"/>
<feColorMatrix type="matrix" values="0 0 0 0 1 0 0 0 0 0.229167 0 0 0 0 0.691667 0 0 0 0.4 0"/>
<feBlend mode="normal" in2="BackgroundImageFix" result="effect1_dropShadow_101_2"/>
<feBlend mode="normal" in="SourceGraphic" in2="effect1_dropShadow_101_2" result="shape"/>
</filter>
<filter id="filter8_d_101_2" x="201" y="333" width="187" height="114" filterUnits="userSpaceOnUse" color-interpolation-filters="sRGB">
<feFlood flood-opacity="0" result="BackgroundImageFix"/>
<feColorMatrix in="SourceAlpha" type="matrix" values="0 0 0 0 0 0 0 0 0 0 0 0 0 0 0 0 0 0 127 0" result="hardAlpha"/>
<feMorphology radius="7" operator="dilate" in="SourceAlpha" result="effect1_dropShadow_101_2"/>
<feOffset dy="4"/>
<feGaussianBlur stdDeviation="10"/>
<feComposite in2="hardAlpha" operator="out"/>
<feColorMatrix type="matrix" values="0 0 0 0 1 0 0 0 0 0.229167 0 0 0 0 0.691667 0 0 0 0.4 0"/>
<feBlend mode="normal" in2="BackgroundImageFix" result="effect1_dropShadow_101_2"/>
<feBlend mode="normal" in="SourceGraphic" in2="effect1_dropShadow_101_2" result="shape"/>
</filter>
<filter id="filter9_d_101_2" x="351" y="333" width="187" height="114" filterUnits="userSpaceOnUse" color-interpolation-filters="sRGB">
<feFlood flood-opacity="0" result="BackgroundImageFix"/>
<feColorMatrix in="SourceAlpha" type="matrix" values="0 0 0 0 0 0 0 0 0 0 0 0 0 0 0 0 0 0 127 0" result="hardAlpha"/>
<feMorphology radius="7" operator="dilate" in="SourceAlpha" result="effect1_dropShadow_101_2"/>
<feOffset dy="4"/>
<feGaussianBlur stdDeviation="10"/>
<feComposite in2="hardAlpha" operator="out"/>
<feColorMatrix type="matrix" values="0 0 0 0 1 0 0 0 0 0.229167 0 0 0 0 0.691667 0 0 0 0.4 0"/>
<feBlend mode="normal" in2="BackgroundImageFix" result="effect1_dropShadow_101_2"/>
<feBlend mode="normal" in="SourceGraphic" in2="effect1_dropShadow_101_2" result="shape"/>
</filter>
<filter id="filter10_d_101_2" x="351" y="486" width="187" height="114" filterUnits="userSpaceOnUse" color-interpolation-filters="sRGB">
<feFlood flood-opacity="0" result="BackgroundImageFix"/>
<feColorMatrix in="SourceAlpha" type="matrix" values="0 0 0 0 0 0 0 0 0 0 0 0 0 0 0 0 0 0 127 0" result="hardAlpha"/>
<feMorphology radius="7" operator="dilate" in="SourceAlpha" result="effect1_dropShadow_101_2"/>
<feOffset dy="4"/>
<feGaussianBlur stdDeviation="10"/>
<feComposite in2="hardAlpha" operator="out"/>
<feColorMatrix type="matrix" values="0 0 0 0 1 0 0 0 0 0.229167 0 0 0 0 0.691667 0 0 0 0.4 0"/>
<feBlend mode="normal" in2="BackgroundImageFix" result="effect1_dropShadow_101_2"/>
<feBlend mode="normal" in="SourceGraphic" in2="effect1_dropShadow_101_2" result="shape"/>
</filter>
<filter id="filter11_d_101_2" x="351" y="409" width="187" height="114" filterUnits="userSpaceOnUse" color-interpolation-filters="sRGB">
<feFlood flood-opacity="0" result="BackgroundImageFix"/>
<feColorMatrix in="SourceAlpha" type="matrix" values="0 0 0 0 0 0 0 0 0 0 0 0 0 0 0 0 0 0 127 0" result="hardAlpha"/>
<feMorphology radius="7" operator="dilate" in="SourceAlpha" result="effect1_dropShadow_101_2"/>
<feOffset dy="4"/>
<feGaussianBlur stdDeviation="10"/>
<feComposite in2="hardAlpha" operator="out"/>
<feColorMatrix type="matrix" values="0 0 0 0 1 0 0 0 0 0.229167 0 0 0 0 0.691667 0 0 0 0.4 0"/>
<feBlend mode="normal" in2="BackgroundImageFix" result="effect1_dropShadow_101_2"/>
<feBlend mode="normal" in="SourceGraphic" in2="effect1_dropShadow_101_2" result="shape"/>
</filter>
<filter id="filter12_d_101_2" x="501" y="333" width="186" height="114" filterUnits="userSpaceOnUse" color-interpolation-filters="sRGB">
<feFlood flood-opacity="0" result="BackgroundImageFix"/>
<feColorMatrix in="SourceAlpha" type="matrix" values="0 0 0 0 0 0 0 0 0 0 0 0 0 0 0 0 0 0 127 0" result="hardAlpha"/>
<feMorphology radius="7" operator="dilate" in="SourceAlpha" result="effect1_dropShadow_101_2"/>
<feOffset dy="4"/>
<feGaussianBlur stdDeviation="10"/>
<feComposite in2="hardAlpha" operator="out"/>
<feColorMatrix type="matrix" values="0 0 0 0 1 0 0 0 0 0.229167 0 0 0 0 0.691667 0 0 0 0.4 0"/>
<feBlend mode="normal" in2="BackgroundImageFix" result="effect1_dropShadow_101_2"/>
<feBlend mode="normal" in="SourceGraphic" in2="effect1_dropShadow_101_2" result="shape"/>
</filter>
<filter id="filter13_d_101_2" x="501" y="409" width="186" height="114" filterUnits="userSpaceOnUse" color-interpolation-filters="sRGB">
<feFlood flood-opacity="0" result="BackgroundImageFix"/>
<feColorMatrix in="SourceAlpha" type="matrix" values="0 0 0 0 0 0 0 0 0 0 0 0 0 0 0 0 0 0 127 0" result="hardAlpha"/>
<feMorphology radius="7" operator="dilate" in="SourceAlpha" result="effect1_dropShadow_101_2"/>
<feOffset dy="4"/>
<feGaussianBlur stdDeviation="10"/>
<feComposite in2="hardAlpha" operator="out"/>
<feColorMatrix type="matrix" values="0 0 0 0 1 0 0 0 0 0.229167 0 0 0 0 0.691667 0 0 0 0.4 0"/>
<feBlend mode="normal" in2="BackgroundImageFix" result="effect1_dropShadow_101_2"/>
<feBlend mode="normal" in="SourceGraphic" in2="effect1_dropShadow_101_2" result="shape"/>
</filter>
<filter id="filter14_d_101_2" x="51" y="409" width="186" height="114" filterUnits="userSpaceOnUse" color-interpolation-filters="sRGB">
<feFlood flood-opacity="0" result="BackgroundImageFix"/>
<feColorMatrix in="SourceAlpha" type="matrix" values="0 0 0 0 0 0 0 0 0 0 0 0 0 0 0 0 0 0 127 0" result="hardAlpha"/>
<feMorphology radius="7" operator="dilate" in="SourceAlpha" result="effect1_dropShadow_101_2"/>
<feOffset dy="4"/>
<feGaussianBlur stdDeviation="10"/>
<feComposite in2="hardAlpha" operator="out"/>
<feColorMatrix type="matrix" values="0 0 0 0 1 0 0 0 0 0.229167 0 0 0 0 0.691667 0 0 0 0.4 0"/>
<feBlend mode="normal" in2="BackgroundImageFix" result="effect1_dropShadow_101_2"/>
<feBlend mode="normal" in="SourceGraphic" in2="effect1_dropShadow_101_2" result="shape"/>
</filter>
<filter id="filter15_d_101_2" x="51" y="486" width="186" height="114" filterUnits="userSpaceOnUse" color-interpolation-filters="sRGB">
<feFlood flood-opacity="0" result="BackgroundImageFix"/>
<feColorMatrix in="SourceAlpha" type="matrix" values="0 0 0 0 0 0 0 0 0 0 0 0 0 0 0 0 0 0 127 0" result="hardAlpha"/>
<feMorphology radius="7" operator="dilate" in="SourceAlpha" result="effect1_dropShadow_101_2"/>
<feOffset dy="4"/>
<feGaussianBlur stdDeviation="10"/>
<feComposite in2="hardAlpha" operator="out"/>
<feColorMatrix type="matrix" values="0 0 0 0 1 0 0 0 0 0.229167 0 0 0 0 0.691667 0 0 0 0.4 0"/>
<feBlend mode="normal" in2="BackgroundImageFix" result="effect1_dropShadow_101_2"/>
<feBlend mode="normal" in="SourceGraphic" in2="effect1_dropShadow_101_2" result="shape"/>
</filter>
<filter id="filter16_d_101_2" x="201" y="409" width="187" height="114" filterUnits="userSpaceOnUse" color-interpolation-filters="sRGB">
<feFlood flood-opacity="0" result="BackgroundImageFix"/>
<feColorMatrix in="SourceAlpha" type="matrix" values="0 0 0 0 0 0 0 0 0 0 0 0 0 0 0 0 0 0 127 0" result="hardAlpha"/>
<feMorphology radius="7" operator="dilate" in="SourceAlpha" result="effect1_dropShadow_101_2"/>
<feOffset dy="4"/>
<feGaussianBlur stdDeviation="10"/>
<feComposite in2="hardAlpha" operator="out"/>
<feColorMatrix type="matrix" values="0 0 0 0 1 0 0 0 0 0.229167 0 0 0 0 0.691667 0 0 0 0.4 0"/>
<feBlend mode="normal" in2="BackgroundImageFix" result="effect1_dropShadow_101_2"/>
<feBlend mode="normal" in="SourceGraphic" in2="effect1_dropShadow_101_2" result="shape"/>
</filter>
<filter id="filter17_d_101_2" x="201" y="486" width="187" height="114" filterUnits="userSpaceOnUse" color-interpolation-filters="sRGB">
<feFlood flood-opacity="0" result="BackgroundImageFix"/>
<feColorMatrix in="SourceAlpha" type="matrix" values="0 0 0 0 0 0 0 0 0 0 0 0 0 0 0 0 0 0 127 0" result="hardAlpha"/>
<feMorphology radius="7" operator="dilate" in="SourceAlpha" result="effect1_dropShadow_101_2"/>
<feOffset dy="4"/>
<feGaussianBlur stdDeviation="10"/>
<feComposite in2="hardAlpha" operator="out"/>
<feColorMatrix type="matrix" values="0 0 0 0 1 0 0 0 0 0.229167 0 0 0 0 0.691667 0 0 0 0.4 0"/>
<feBlend mode="normal" in2="BackgroundImageFix" result="effect1_dropShadow_101_2"/>
<feBlend mode="normal" in="SourceGraphic" in2="effect1_dropShadow_101_2" result="shape"/>
</filter>
<filter id="filter18_d_101_2" x="201" y="561" width="187" height="115" filterUnits="userSpaceOnUse" color-interpolation-filters="sRGB">
<feFlood flood-opacity="0" result="BackgroundImageFix"/>
<feColorMatrix in="SourceAlpha" type="matrix" values="0 0 0 0 0 0 0 0 0 0 0 0 0 0 0 0 0 0 127 0" result="hardAlpha"/>
<feMorphology radius="7" operator="dilate" in="SourceAlpha" result="effect1_dropShadow_101_2"/>
<feOffset dy="4"/>
<feGaussianBlur stdDeviation="10"/>
<feComposite in2="hardAlpha" operator="out"/>
<feColorMatrix type="matrix" values="0 0 0 0 1 0 0 0 0 0.229167 0 0 0 0 0.691667 0 0 0 0.4 0"/>
<feBlend mode="normal" in2="BackgroundImageFix" result="effect1_dropShadow_101_2"/>
<feBlend mode="normal" in="SourceGraphic" in2="effect1_dropShadow_101_2" result="shape"/>
</filter>
<filter id="filter19_d_101_2" x="501" y="637" width="186" height="114" filterUnits="userSpaceOnUse" color-interpolation-filters="sRGB">
<feFlood flood-opacity="0" result="BackgroundImageFix"/>
<feColorMatrix in="SourceAlpha" type="matrix" values="0 0 0 0 0 0 0 0 0 0 0 0 0 0 0 0 0 0 127 0" result="hardAlpha"/>
<feMorphology radius="7" operator="dilate" in="SourceAlpha" result="effect1_dropShadow_101_2"/>
<feOffset dy="4"/>
<feGaussianBlur stdDeviation="10"/>
<feComposite in2="hardAlpha" operator="out"/>
<feColorMatrix type="matrix" values="0 0 0 0 1 0 0 0 0 0.229167 0 0 0 0 0.691667 0 0 0 0.4 0"/>
<feBlend mode="normal" in2="BackgroundImageFix" result="effect1_dropShadow_101_2"/>
<feBlend mode="normal" in="SourceGraphic" in2="effect1_dropShadow_101_2" result="shape"/>
</filter>
<filter id="filter20_d_101_2" x="351" y="714" width="187" height="114" filterUnits="userSpaceOnUse" color-interpolation-filters="sRGB">
<feFlood flood-opacity="0" result="BackgroundImageFix"/>
<feColorMatrix in="SourceAlpha" type="matrix" values="0 0 0 0 0 0 0 0 0 0 0 0 0 0 0 0 0 0 127 0" result="hardAlpha"/>
<feMorphology radius="7" operator="dilate" in="SourceAlpha" result="effect1_dropShadow_101_2"/>
<feOffset dy="4"/>
<feGaussianBlur stdDeviation="10"/>
<feComposite in2="hardAlpha" operator="out"/>
<feColorMatrix type="matrix" values="0 0 0 0 1 0 0 0 0 0.229167 0 0 0 0 0.691667 0 0 0 0.4 0"/>
<feBlend mode="normal" in2="BackgroundImageFix" result="effect1_dropShadow_101_2"/>
<feBlend mode="normal" in="SourceGraphic" in2="effect1_dropShadow_101_2" result="shape"/>
</filter>
<filter id="filter21_d_101_2" x="351" y="637" width="187" height="114" filterUnits="userSpaceOnUse" color-interpolation-filters="sRGB">
<feFlood flood-opacity="0" result="BackgroundImageFix"/>
<feColorMatrix in="SourceAlpha" type="matrix" values="0 0 0 0 0 0 0 0 0 0 0 0 0 0 0 0 0 0 127 0" result="hardAlpha"/>
<feMorphology radius="7" operator="dilate" in="SourceAlpha" result="effect1_dropShadow_101_2"/>
<feOffset dy="4"/>
<feGaussianBlur stdDeviation="10"/>
<feComposite in2="hardAlpha" operator="out"/>
<feColorMatrix type="matrix" values="0 0 0 0 1 0 0 0 0 0.229167 0 0 0 0 0.691667 0 0 0 0.4 0"/>
<feBlend mode="normal" in2="BackgroundImageFix" result="effect1_dropShadow_101_2"/>
<feBlend mode="normal" in="SourceGraphic" in2="effect1_dropShadow_101_2" result="shape"/>
</filter>
<filter id="filter22_d_101_2" x="351" y="790" width="187" height="114" filterUnits="userSpaceOnUse" color-interpolation-filters="sRGB">
<feFlood flood-opacity="0" result="BackgroundImageFix"/>
<feColorMatrix in="SourceAlpha" type="matrix" values="0 0 0 0 0 0 0 0 0 0 0 0 0 0 0 0 0 0 127 0" result="hardAlpha"/>
<feMorphology radius="7" operator="dilate" in="SourceAlpha" result="effect1_dropShadow_101_2"/>
<feOffset dy="4"/>
<feGaussianBlur stdDeviation="10"/>
<feComposite in2="hardAlpha" operator="out"/>
<feColorMatrix type="matrix" values="0 0 0 0 1 0 0 0 0 0.229167 0 0 0 0 0.691667 0 0 0 0.4 0"/>
<feBlend mode="normal" in2="BackgroundImageFix" result="effect1_dropShadow_101_2"/>
<feBlend mode="normal" in="SourceGraphic" in2="effect1_dropShadow_101_2" result="shape"/>
</filter>
<filter id="filter23_d_101_2" x="51" y="866" width="636" height="114" filterUnits="userSpaceOnUse" color-interpolation-filters="sRGB">
<feFlood flood-opacity="0" result="BackgroundImageFix"/>
<feColorMatrix in="SourceAlpha" type="matrix" values="0 0 0 0 0 0 0 0 0 0 0 0 0 0 0 0 0 0 127 0" result="hardAlpha"/>
<feMorphology radius="7" operator="dilate" in="SourceAlpha" result="effect1_dropShadow_101_2"/>
<feOffset dy="4"/>
<feGaussianBlur stdDeviation="10"/>
<feComposite in2="hardAlpha" operator="out"/>
<feColorMatrix type="matrix" values="0 0 0 0 1 0 0 0 0 0.229167 0 0 0 0 0.691667 0 0 0 0.4 0"/>
<feBlend mode="normal" in2="BackgroundImageFix" result="effect1_dropShadow_101_2"/>
<feBlend mode="normal" in="SourceGraphic" in2="effect1_dropShadow_101_2" result="shape"/>
</filter>
<filter id="filter24_d_101_2" x="501" y="790" width="186" height="114" filterUnits="userSpaceOnUse" color-interpolation-filters="sRGB">
<feFlood flood-opacity="0" result="BackgroundImageFix"/>
<feColorMatrix in="SourceAlpha" type="matrix" values="0 0 0 0 0 0 0 0 0 0 0 0 0 0 0 0 0 0 127 0" result="hardAlpha"/>
<feMorphology radius="7" operator="dilate" in="SourceAlpha" result="effect1_dropShadow_101_2"/>
<feOffset dy="4"/>
<feGaussianBlur stdDeviation="10"/>
<feComposite in2="hardAlpha" operator="out"/>
<feColorMatrix type="matrix" values="0 0 0 0 1 0 0 0 0 0.229167 0 0 0 0 0.691667 0 0 0 0.4 0"/>
<feBlend mode="normal" in2="BackgroundImageFix" result="effect1_dropShadow_101_2"/>
<feBlend mode="normal" in="SourceGraphic" in2="effect1_dropShadow_101_2" result="shape"/>
</filter>
<filter id="filter25_d_101_2" x="501" y="714" width="186" height="114" filterUnits="userSpaceOnUse" color-interpolation-filters="sRGB">
<feFlood flood-opacity="0" result="BackgroundImageFix"/>
<feColorMatrix in="SourceAlpha" type="matrix" values="0 0 0 0 0 0 0 0 0 0 0 0 0 0 0 0 0 0 127 0" result="hardAlpha"/>
<feMorphology radius="7" operator="dilate" in="SourceAlpha" result="effect1_dropShadow_101_2"/>
<feOffset dy="4"/>
<feGaussianBlur stdDeviation="10"/>
<feComposite in2="hardAlpha" operator="out"/>
<feColorMatrix type="matrix" values="0 0 0 0 1 0 0 0 0 0.229167 0 0 0 0 0.691667 0 0 0 0.4 0"/>
<feBlend mode="normal" in2="BackgroundImageFix" result="effect1_dropShadow_101_2"/>
<feBlend mode="normal" in="SourceGraphic" in2="effect1_dropShadow_101_2" result="shape"/>
</filter>
<filter id="filter26_d_101_2" x="351" y="257" width="336" height="114" filterUnits="userSpaceOnUse" color-interpolation-filters="sRGB">
<feFlood flood-opacity="0" result="BackgroundImageFix"/>
<feColorMatrix in="SourceAlpha" type="matrix" values="0 0 0 0 0 0 0 0 0 0 0 0 0 0 0 0 0 0 127 0" result="hardAlpha"/>
<feMorphology radius="7" operator="dilate" in="SourceAlpha" result="effect1_dropShadow_101_2"/>
<feOffset dy="4"/>
<feGaussianBlur stdDeviation="10"/>
<feComposite in2="hardAlpha" operator="out"/>
<feColorMatrix type="matrix" values="0 0 0 0 1 0 0 0 0 0.229167 0 0 0 0 0.691667 0 0 0 0.4 0"/>
<feBlend mode="normal" in2="BackgroundImageFix" result="effect1_dropShadow_101_2"/>
<feBlend mode="normal" in="SourceGraphic" in2="effect1_dropShadow_101_2" result="shape"/>
</filter>
<filter id="filter27_d_101_2" x="51" y="637" width="186" height="114" filterUnits="userSpaceOnUse" color-interpolation-filters="sRGB">
<feFlood flood-opacity="0" result="BackgroundImageFix"/>
<feColorMatrix in="SourceAlpha" type="matrix" values="0 0 0 0 0 0 0 0 0 0 0 0 0 0 0 0 0 0 127 0" result="hardAlpha"/>
<feMorphology radius="7" operator="dilate" in="SourceAlpha" result="effect1_dropShadow_101_2"/>
<feOffset dy="4"/>
<feGaussianBlur stdDeviation="10"/>
<feComposite in2="hardAlpha" operator="out"/>
<feColorMatrix type="matrix" values="0 0 0 0 1 0 0 0 0 0.229167 0 0 0 0 0.691667 0 0 0 0.4 0"/>
<feBlend mode="normal" in2="BackgroundImageFix" result="effect1_dropShadow_101_2"/>
<feBlend mode="normal" in="SourceGraphic" in2="effect1_dropShadow_101_2" result="shape"/>
</filter>
<filter id="filter28_d_101_2" x="51" y="714" width="186" height="114" filterUnits="userSpaceOnUse" color-interpolation-filters="sRGB">
<feFlood flood-opacity="0" result="BackgroundImageFix"/>
<feColorMatrix in="SourceAlpha" type="matrix" values="0 0 0 0 0 0 0 0 0 0 0 0 0 0 0 0 0 0 127 0" result="hardAlpha"/>
<feMorphology radius="7" operator="dilate" in="SourceAlpha" result="effect1_dropShadow_101_2"/>
<feOffset dy="4"/>
<feGaussianBlur stdDeviation="10"/>
<feComposite in2="hardAlpha" operator="out"/>
<feColorMatrix type="matrix" values="0 0 0 0 1 0 0 0 0 0.229167 0 0 0 0 0.691667 0 0 0 0.4 0"/>
<feBlend mode="normal" in2="BackgroundImageFix" result="effect1_dropShadow_101_2"/>
<feBlend mode="normal" in="SourceGraphic" in2="effect1_dropShadow_101_2" result="shape"/>
</filter>
<filter id="filter29_d_101_2" x="51" y="790" width="186" height="114" filterUnits="userSpaceOnUse" color-interpolation-filters="sRGB">
<feFlood flood-opacity="0" result="BackgroundImageFix"/>
<feColorMatrix in="SourceAlpha" type="matrix" values="0 0 0 0 0 0 0 0 0 0 0 0 0 0 0 0 0 0 127 0" result="hardAlpha"/>
<feMorphology radius="7" operator="dilate" in="SourceAlpha" result="effect1_dropShadow_101_2"/>
<feOffset dy="4"/>
<feGaussianBlur stdDeviation="10"/>
<feComposite in2="hardAlpha" operator="out"/>
<feColorMatrix type="matrix" values="0 0 0 0 1 0 0 0 0 0.229167 0 0 0 0 0.691667 0 0 0 0.4 0"/>
<feBlend mode="normal" in2="BackgroundImageFix" result="effect1_dropShadow_101_2"/>
<feBlend mode="normal" in="SourceGraphic" in2="effect1_dropShadow_101_2" result="shape"/>
</filter>
<filter id="filter30_d_101_2" x="201" y="637" width="187" height="114" filterUnits="userSpaceOnUse" color-interpolation-filters="sRGB">
<feFlood flood-opacity="0" result="BackgroundImageFix"/>
<feColorMatrix in="SourceAlpha" type="matrix" values="0 0 0 0 0 0 0 0 0 0 0 0 0 0 0 0 0 0 127 0" result="hardAlpha"/>
<feMorphology radius="7" operator="dilate" in="SourceAlpha" result="effect1_dropShadow_101_2"/>
<feOffset dy="4"/>
<feGaussianBlur stdDeviation="10"/>
<feComposite in2="hardAlpha" operator="out"/>
<feColorMatrix type="matrix" values="0 0 0 0 1 0 0 0 0 0.229167 0 0 0 0 0.691667 0 0 0 0.4 0"/>
<feBlend mode="normal" in2="BackgroundImageFix" result="effect1_dropShadow_101_2"/>
<feBlend mode="normal" in="SourceGraphic" in2="effect1_dropShadow_101_2" result="shape"/>
</filter>
<filter id="filter31_d_101_2" x="201" y="714" width="187" height="114" filterUnits="userSpaceOnUse" color-interpolation-filters="sRGB">
<feFlood flood-opacity="0" result="BackgroundImageFix"/>
<feColorMatrix in="SourceAlpha" type="matrix" values="0 0 0 0 0 0 0 0 0 0 0 0 0 0 0 0 0 0 127 0" result="hardAlpha"/>
<feMorphology radius="7" operator="dilate" in="SourceAlpha" result="effect1_dropShadow_101_2"/>
<feOffset dy="4"/>
<feGaussianBlur stdDeviation="10"/>
<feComposite in2="hardAlpha" operator="out"/>
<feColorMatrix type="matrix" values="0 0 0 0 1 0 0 0 0 0.229167 0 0 0 0 0.691667 0 0 0 0.4 0"/>
<feBlend mode="normal" in2="BackgroundImageFix" result="effect1_dropShadow_101_2"/>
<feBlend mode="normal" in="SourceGraphic" in2="effect1_dropShadow_101_2" result="shape"/>
</filter>
<filter id="filter32_d_101_2" x="201" y="790" width="187" height="114" filterUnits="userSpaceOnUse" color-interpolation-filters="sRGB">
<feFlood flood-opacity="0" result="BackgroundImageFix"/>
<feColorMatrix in="SourceAlpha" type="matrix" values="0 0 0 0 0 0 0 0 0 0 0 0 0 0 0 0 0 0 127 0" result="hardAlpha"/>
<feMorphology radius="7" operator="dilate" in="SourceAlpha" result="effect1_dropShadow_101_2"/>
<feOffset dy="4"/>
<feGaussianBlur stdDeviation="10"/>
<feComposite in2="hardAlpha" operator="out"/>
<feColorMatrix type="matrix" values="0 0 0 0 1 0 0 0 0 0.229167 0 0 0 0 0.691667 0 0 0 0.4 0"/>
<feBlend mode="normal" in2="BackgroundImageFix" result="effect1_dropShadow_101_2"/>
<feBlend mode="normal" in="SourceGraphic" in2="effect1_dropShadow_101_2" result="shape"/>
</filter>
<filter id="filter33_d_101_2" x="693" y="82" width="703" height="180" filterUnits="userSpaceOnUse" color-interpolation-filters="sRGB">
<feFlood flood-opacity="0" result="BackgroundImageFix"/>
<feColorMatrix in="SourceAlpha" type="matrix" values="0 0 0 0 0 0 0 0 0 0 0 0 0 0 0 0 0 0 127 0" result="hardAlpha"/>
<feMorphology radius="7" operator="dilate" in="SourceAlpha" result="effect1_dropShadow_101_2"/>
<feOffset dy="4"/>
<feGaussianBlur stdDeviation="10"/>
<feComposite in2="hardAlpha" operator="out"/>
<feColorMatrix type="matrix" values="0 0 0 0 1 0 0 0 0 0.229167 0 0 0 0 0.691667 0 0 0 0.4 0"/>
<feBlend mode="normal" in2="BackgroundImageFix" result="effect1_dropShadow_101_2"/>
<feBlend mode="normal" in="SourceGraphic" in2="effect1_dropShadow_101_2" result="shape"/>
</filter>
<clipPath id="clip0_101_2">
<rect width="1440" height="1024" fill="white"/>
</clipPath>
</defs>
</svg>
