<svg width="636" height="723" viewBox="0 0 636 723" fill="none" xmlns="http://www.w3.org/2000/svg">
<g filter="url(#filter0_d_105_105)">
<rect x="27" y="99" width="132" height="60" rx="30" fill="#D9D9D9"/>
</g>
<path d="M81.4738 135.1C80.6072 135.1 79.7872 134.98 79.0138 134.74C78.2405 134.487 77.6338 134.173 77.1938 133.8L77.8338 132.68C78.2605 133 78.8072 133.28 79.4738 133.52C80.1405 133.747 80.8405 133.86 81.5738 133.86C82.5738 133.86 83.2938 133.707 83.7338 133.4C84.1738 133.08 84.3938 132.66 84.3938 132.14C84.3938 131.753 84.2672 131.453 84.0138 131.24C83.7738 131.013 83.4538 130.847 83.0538 130.74C82.6538 130.62 82.2072 130.52 81.7138 130.44C81.2205 130.36 80.7272 130.267 80.2338 130.16C79.7538 130.053 79.3138 129.9 78.9138 129.7C78.5138 129.487 78.1872 129.2 77.9338 128.84C77.6938 128.48 77.5738 128 77.5738 127.4C77.5738 126.827 77.7338 126.313 78.0538 125.86C78.3738 125.407 78.8405 125.053 79.4538 124.8C80.0805 124.533 80.8405 124.4 81.7338 124.4C82.4138 124.4 83.0938 124.493 83.7738 124.68C84.4538 124.853 85.0138 125.087 85.4538 125.38L84.8338 126.52C84.3672 126.2 83.8672 125.973 83.3338 125.84C82.8005 125.693 82.2672 125.62 81.7338 125.62C80.7872 125.62 80.0872 125.787 79.6338 126.12C79.1938 126.44 78.9738 126.853 78.9738 127.36C78.9738 127.76 79.0938 128.073 79.3338 128.3C79.5872 128.527 79.9138 128.707 80.3138 128.84C80.7272 128.96 81.1738 129.06 81.6538 129.14C82.1472 129.22 82.6338 129.32 83.1138 129.44C83.6072 129.547 84.0538 129.7 84.4538 129.9C84.8672 130.087 85.1938 130.36 85.4338 130.72C85.6872 131.067 85.8138 131.527 85.8138 132.1C85.8138 132.713 85.6405 133.247 85.2938 133.7C84.9605 134.14 84.4672 134.487 83.8138 134.74C83.1738 134.98 82.3938 135.1 81.4738 135.1ZM88.4195 135V124.5H89.8395V135H88.4195ZM89.1395 122.18C88.8461 122.18 88.5995 122.08 88.3995 121.88C88.1995 121.68 88.0995 121.44 88.0995 121.16C88.0995 120.88 88.1995 120.647 88.3995 120.46C88.5995 120.26 88.8461 120.16 89.1395 120.16C89.4328 120.16 89.6795 120.253 89.8795 120.44C90.0795 120.627 90.1795 120.86 90.1795 121.14C90.1795 121.433 90.0795 121.68 89.8795 121.88C89.6928 122.08 89.4461 122.18 89.1395 122.18ZM99.1505 124.4C100.004 124.4 100.751 124.567 101.391 124.9C102.044 125.22 102.551 125.713 102.911 126.38C103.284 127.047 103.471 127.887 103.471 128.9V135H102.051V129.04C102.051 127.933 101.771 127.1 101.211 126.54C100.664 125.967 99.8905 125.68 98.8905 125.68C98.1439 125.68 97.4905 125.833 96.9305 126.14C96.3839 126.433 95.9572 126.867 95.6505 127.44C95.3572 128 95.2105 128.68 95.2105 129.48V135H93.7905V124.5H95.1505V127.38L94.9305 126.84C95.2639 126.08 95.7972 125.487 96.5305 125.06C97.2639 124.62 98.1372 124.4 99.1505 124.4Z" fill="#6D1243"/>
<g filter="url(#filter1_d_105_105)">
<rect x="27" y="23" width="132" height="60" rx="30" fill="#D9D9D9"/>
</g>
<path d="M80.4477 48.4C81.301 48.4 82.041 48.5667 82.6677 48.9C83.3077 49.22 83.801 49.7133 84.1477 50.38C84.5077 51.0467 84.6877 51.8867 84.6877 52.9V59H83.2677V53.04C83.2677 51.9333 83.001 51.1 82.4677 50.54C81.9477 49.9667 81.2077 49.68 80.2477 49.68C79.5277 49.68 78.901 49.8333 78.3677 50.14C77.8477 50.4333 77.441 50.8667 77.1477 51.44C76.8677 52 76.7277 52.68 76.7277 53.48V59H75.3077V53.04C75.3077 51.9333 75.041 51.1 74.5077 50.54C73.9743 49.9667 73.2277 49.68 72.2677 49.68C71.561 49.68 70.941 49.8333 70.4077 50.14C69.8743 50.4333 69.461 50.8667 69.1677 51.44C68.8877 52 68.7477 52.68 68.7477 53.48V59H67.3277V48.5H68.6877V51.34L68.4677 50.84C68.7877 50.08 69.301 49.4867 70.0077 49.06C70.7277 48.62 71.5743 48.4 72.5477 48.4C73.5743 48.4 74.4477 48.66 75.1677 49.18C75.8877 49.6867 76.3543 50.4533 76.5677 51.48L76.0077 51.26C76.3143 50.4067 76.8543 49.72 77.6277 49.2C78.4143 48.6667 79.3543 48.4 80.4477 48.4ZM92.8186 59.1C91.8053 59.1 90.8919 58.8733 90.0786 58.42C89.2786 57.9533 88.6453 57.32 88.1786 56.52C87.7119 55.7067 87.4786 54.78 87.4786 53.74C87.4786 52.6867 87.7119 51.76 88.1786 50.96C88.6453 50.16 89.2786 49.5333 90.0786 49.08C90.8786 48.6267 91.7919 48.4 92.8186 48.4C93.8586 48.4 94.7786 48.6267 95.5786 49.08C96.3919 49.5333 97.0253 50.16 97.4786 50.96C97.9453 51.76 98.1786 52.6867 98.1786 53.74C98.1786 54.78 97.9453 55.7067 97.4786 56.52C97.0253 57.32 96.3919 57.9533 95.5786 58.42C94.7653 58.8733 93.8453 59.1 92.8186 59.1ZM92.8186 57.84C93.5786 57.84 94.2519 57.6733 94.8386 57.34C95.4253 56.9933 95.8853 56.5133 96.2186 55.9C96.5653 55.2733 96.7386 54.5533 96.7386 53.74C96.7386 52.9133 96.5653 52.1933 96.2186 51.58C95.8853 50.9667 95.4253 50.4933 94.8386 50.16C94.2519 49.8133 93.5853 49.64 92.8386 49.64C92.0919 49.64 91.4253 49.8133 90.8386 50.16C90.2519 50.4933 89.7853 50.9667 89.4386 51.58C89.0919 52.1933 88.9186 52.9133 88.9186 53.74C88.9186 54.5533 89.0919 55.2733 89.4386 55.9C89.7853 56.5133 90.2519 56.9933 90.8386 57.34C91.4253 57.6733 92.0853 57.84 92.8186 57.84ZM105.258 59.1C104.258 59.1 103.358 58.8733 102.558 58.42C101.771 57.9667 101.151 57.34 100.698 56.54C100.244 55.7267 100.018 54.7933 100.018 53.74C100.018 52.6733 100.244 51.74 100.698 50.94C101.151 50.14 101.771 49.52 102.558 49.08C103.358 48.6267 104.258 48.4 105.258 48.4C106.178 48.4 106.998 48.6067 107.718 49.02C108.451 49.4333 109.031 50.04 109.458 50.84C109.898 51.6267 110.118 52.5933 110.118 53.74C110.118 54.8733 109.904 55.84 109.478 56.64C109.051 57.44 108.471 58.0533 107.738 58.48C107.018 58.8933 106.191 59.1 105.258 59.1ZM105.358 57.84C106.104 57.84 106.771 57.6733 107.358 57.34C107.958 56.9933 108.424 56.5133 108.758 55.9C109.104 55.2733 109.278 54.5533 109.278 53.74C109.278 52.9133 109.104 52.1933 108.758 51.58C108.424 50.9667 107.958 50.4933 107.358 50.16C106.771 49.8133 106.104 49.64 105.358 49.64C104.624 49.64 103.964 49.8133 103.378 50.16C102.791 50.4933 102.324 50.9667 101.978 51.58C101.631 52.1933 101.458 52.9133 101.458 53.74C101.458 54.5533 101.631 55.2733 101.978 55.9C102.324 56.5133 102.791 56.9933 103.378 57.34C103.964 57.6733 104.624 57.84 105.358 57.84ZM109.318 59V55.84L109.458 53.72L109.258 51.6V44.16H110.678V59H109.318Z" fill="#6D1243"/>
<g filter="url(#filter2_d_105_105)">
<rect x="477" y="252" width="132" height="60" rx="30" fill="#D9D9D9"/>
</g>
<path d="M538.898 288.14L542.398 279.86H543.618L547.098 288.14H545.918L542.698 280.36H543.298L540.078 288.14H538.898Z" fill="#6D1243"/>
<g filter="url(#filter3_d_105_105)">
<rect x="27" y="327" width="132" height="61" rx="30" fill="#DFB7C6"/>
</g>
<path d="M88.6113 367L94.6513 353.64L95.0913 354.28H86.4313L87.1713 353.58V356.9H85.7513V353H96.0313V354.02L90.1713 367H88.6113Z" fill="#6D1243"/>
<g filter="url(#filter4_d_105_105)">
<rect x="327" y="327" width="133" height="61" rx="30" fill="#DFB7C6"/>
</g>
<path d="M392.306 352.88C393.546 352.88 394.593 353.16 395.446 353.72C396.3 354.267 396.946 355.06 397.386 356.1C397.826 357.14 398.046 358.4 398.046 359.88C398.046 361.453 397.773 362.78 397.226 363.86C396.693 364.94 395.946 365.753 394.986 366.3C394.026 366.847 392.913 367.12 391.646 367.12C391.02 367.12 390.42 367.06 389.846 366.94C389.286 366.82 388.78 366.627 388.326 366.36L388.906 365.2C389.266 365.44 389.68 365.613 390.146 365.72C390.626 365.813 391.12 365.86 391.626 365.86C393.133 365.86 394.333 365.38 395.226 364.42C396.133 363.46 396.586 362.027 396.586 360.12C396.586 359.813 396.566 359.447 396.526 359.02C396.5 358.593 396.426 358.167 396.306 357.74L396.806 358.12C396.673 358.813 396.386 359.407 395.946 359.9C395.52 360.38 394.986 360.747 394.346 361C393.72 361.253 393.02 361.38 392.246 361.38C391.326 361.38 390.506 361.207 389.786 360.86C389.08 360.513 388.526 360.027 388.126 359.4C387.726 358.773 387.526 358.033 387.526 357.18C387.526 356.3 387.733 355.54 388.146 354.9C388.56 354.26 389.126 353.767 389.846 353.42C390.58 353.06 391.4 352.88 392.306 352.88ZM392.366 354.1C391.7 354.1 391.106 354.227 390.586 354.48C390.08 354.72 389.68 355.067 389.386 355.52C389.093 355.973 388.946 356.513 388.946 357.14C388.946 358.06 389.26 358.793 389.886 359.34C390.526 359.887 391.386 360.16 392.466 360.16C393.186 360.16 393.813 360.027 394.346 359.76C394.893 359.493 395.313 359.127 395.606 358.66C395.913 358.193 396.066 357.673 396.066 357.1C396.066 356.58 395.926 356.093 395.646 355.64C395.366 355.187 394.953 354.82 394.406 354.54C393.86 354.247 393.18 354.1 392.366 354.1Z" fill="#6D1243"/>
<g filter="url(#filter5_d_105_105)">
<rect x="477" y="327" width="132" height="61" rx="30" fill="#D9D9D9"/>
</g>
<path d="M537.778 359.32V357.904H548.218V359.32H537.778ZM542.986 364.36C542.682 364.36 542.418 364.248 542.194 364.024C541.97 363.8 541.858 363.52 541.858 363.184C541.858 362.848 541.97 362.576 542.194 362.368C542.418 362.144 542.682 362.032 542.986 362.032C543.306 362.032 543.578 362.144 543.802 362.368C544.026 362.576 544.138 362.848 544.138 363.184C544.138 363.52 544.026 363.8 543.802 364.024C543.578 364.248 543.306 364.36 542.986 364.36ZM542.986 355.168C542.682 355.168 542.418 355.056 542.194 354.832C541.97 354.608 541.858 354.336 541.858 354.016C541.858 353.664 541.97 353.384 542.194 353.176C542.418 352.952 542.682 352.84 542.986 352.84C543.306 352.84 543.578 352.952 543.802 353.176C544.026 353.384 544.138 353.664 544.138 354.016C544.138 354.336 544.026 354.608 543.802 354.832C543.578 355.056 543.306 355.168 542.986 355.168Z" fill="#6D1243"/>
<g filter="url(#filter6_d_105_105)">
<rect x="177" y="23" width="133" height="60" rx="30" fill="#D9D9D9"/>
</g>
<path d="M237.483 59.12C236.43 59.12 235.456 58.9467 234.563 58.6C233.67 58.24 232.896 57.74 232.243 57.1C231.59 56.46 231.076 55.7067 230.703 54.84C230.343 53.9733 230.163 53.0267 230.163 52C230.163 50.9733 230.343 50.0267 230.703 49.16C231.076 48.2933 231.59 47.54 232.243 46.9C232.91 46.26 233.69 45.7667 234.583 45.42C235.476 45.06 236.45 44.88 237.503 44.88C238.516 44.88 239.47 45.0533 240.363 45.4C241.256 45.7333 242.01 46.24 242.623 46.92L241.683 47.86C241.11 47.2733 240.476 46.8533 239.783 46.6C239.09 46.3333 238.343 46.2 237.543 46.2C236.703 46.2 235.923 46.3467 235.203 46.64C234.483 46.92 233.856 47.3267 233.323 47.86C232.79 48.38 232.37 48.9933 232.063 49.7C231.77 50.3933 231.623 51.16 231.623 52C231.623 52.84 231.77 53.6133 232.063 54.32C232.37 55.0133 232.79 55.6267 233.323 56.16C233.856 56.68 234.483 57.0867 235.203 57.38C235.923 57.66 236.703 57.8 237.543 57.8C238.343 57.8 239.09 57.6667 239.783 57.4C240.476 57.1333 241.11 56.7067 241.683 56.12L242.623 57.06C242.01 57.74 241.256 58.2533 240.363 58.6C239.47 58.9467 238.51 59.12 237.483 59.12ZM247.098 51.26H254.498V52.52H247.098V51.26ZM247.258 57.72H255.678V59H245.778V45H255.378V46.28H247.258V57.72Z" fill="#6D1243"/>
<g filter="url(#filter7_d_105_105)">
<rect x="177" y="99" width="133" height="60" rx="30" fill="#D9D9D9"/>
</g>
<path d="M232.641 135.1C231.601 135.1 230.667 134.873 229.841 134.42C229.027 133.953 228.387 133.32 227.921 132.52C227.454 131.707 227.221 130.78 227.221 129.74C227.221 128.687 227.454 127.76 227.921 126.96C228.387 126.16 229.027 125.533 229.841 125.08C230.667 124.627 231.601 124.4 232.641 124.4C233.534 124.4 234.341 124.573 235.061 124.92C235.781 125.267 236.347 125.787 236.761 126.48L235.701 127.2C235.341 126.667 234.894 126.273 234.361 126.02C233.827 125.767 233.247 125.64 232.621 125.64C231.874 125.64 231.201 125.813 230.601 126.16C230.001 126.493 229.527 126.967 229.181 127.58C228.834 128.193 228.661 128.913 228.661 129.74C228.661 130.567 228.834 131.287 229.181 131.9C229.527 132.513 230.001 132.993 230.601 133.34C231.201 133.673 231.874 133.84 232.621 133.84C233.247 133.84 233.827 133.713 234.361 133.46C234.894 133.207 235.341 132.82 235.701 132.3L236.761 133.02C236.347 133.7 235.781 134.22 235.061 134.58C234.341 134.927 233.534 135.1 232.641 135.1ZM243.655 135.1C242.641 135.1 241.728 134.873 240.915 134.42C240.115 133.953 239.481 133.32 239.015 132.52C238.548 131.707 238.315 130.78 238.315 129.74C238.315 128.687 238.548 127.76 239.015 126.96C239.481 126.16 240.115 125.533 240.915 125.08C241.715 124.627 242.628 124.4 243.655 124.4C244.695 124.4 245.615 124.627 246.415 125.08C247.228 125.533 247.861 126.16 248.315 126.96C248.781 127.76 249.015 128.687 249.015 129.74C249.015 130.78 248.781 131.707 248.315 132.52C247.861 133.32 247.228 133.953 246.415 134.42C245.601 134.873 244.681 135.1 243.655 135.1ZM243.655 133.84C244.415 133.84 245.088 133.673 245.675 133.34C246.261 132.993 246.721 132.513 247.055 131.9C247.401 131.273 247.575 130.553 247.575 129.74C247.575 128.913 247.401 128.193 247.055 127.58C246.721 126.967 246.261 126.493 245.675 126.16C245.088 125.813 244.421 125.64 243.675 125.64C242.928 125.64 242.261 125.813 241.675 126.16C241.088 126.493 240.621 126.967 240.275 127.58C239.928 128.193 239.755 128.913 239.755 129.74C239.755 130.553 239.928 131.273 240.275 131.9C240.621 132.513 241.088 132.993 241.675 133.34C242.261 133.673 242.921 133.84 243.655 133.84ZM254.734 135.1C253.867 135.1 253.047 134.98 252.274 134.74C251.5 134.487 250.894 134.173 250.454 133.8L251.094 132.68C251.52 133 252.067 133.28 252.734 133.52C253.4 133.747 254.1 133.86 254.834 133.86C255.834 133.86 256.554 133.707 256.994 133.4C257.434 133.08 257.654 132.66 257.654 132.14C257.654 131.753 257.527 131.453 257.274 131.24C257.034 131.013 256.714 130.847 256.314 130.74C255.914 130.62 255.467 130.52 254.974 130.44C254.48 130.36 253.987 130.267 253.494 130.16C253.014 130.053 252.574 129.9 252.174 129.7C251.774 129.487 251.447 129.2 251.194 128.84C250.954 128.48 250.834 128 250.834 127.4C250.834 126.827 250.994 126.313 251.314 125.86C251.634 125.407 252.1 125.053 252.714 124.8C253.34 124.533 254.1 124.4 254.994 124.4C255.674 124.4 256.354 124.493 257.034 124.68C257.714 124.853 258.274 125.087 258.714 125.38L258.094 126.52C257.627 126.2 257.127 125.973 256.594 125.84C256.06 125.693 255.527 125.62 254.994 125.62C254.047 125.62 253.347 125.787 252.894 126.12C252.454 126.44 252.234 126.853 252.234 127.36C252.234 127.76 252.354 128.073 252.594 128.3C252.847 128.527 253.174 128.707 253.574 128.84C253.987 128.96 254.434 129.06 254.914 129.14C255.407 129.22 255.894 129.32 256.374 129.44C256.867 129.547 257.314 129.7 257.714 129.9C258.127 130.087 258.454 130.36 258.694 130.72C258.947 131.067 259.074 131.527 259.074 132.1C259.074 132.713 258.9 133.247 258.554 133.7C258.22 134.14 257.727 134.487 257.074 134.74C256.434 134.98 255.654 135.1 254.734 135.1Z" fill="#6D1243"/>
<g filter="url(#filter8_d_105_105)">
<rect x="327" y="99" width="133" height="60" rx="30" fill="#D9D9D9"/>
</g>
<path d="M387.577 135.1C386.591 135.1 385.831 134.833 385.297 134.3C384.764 133.767 384.497 133.013 384.497 132.04V122.18H385.917V131.96C385.917 132.573 386.071 133.047 386.377 133.38C386.697 133.713 387.151 133.88 387.737 133.88C388.364 133.88 388.884 133.7 389.297 133.34L389.797 134.36C389.517 134.613 389.177 134.8 388.777 134.92C388.391 135.04 387.991 135.1 387.577 135.1ZM382.617 125.68V124.5H389.117V125.68H382.617ZM396.491 138.98C395.531 138.98 394.611 138.84 393.731 138.56C392.851 138.28 392.138 137.88 391.591 137.36L392.311 136.28C392.805 136.72 393.411 137.067 394.131 137.32C394.865 137.587 395.638 137.72 396.451 137.72C397.785 137.72 398.765 137.407 399.391 136.78C400.018 136.167 400.331 135.207 400.331 133.9V131.28L400.531 129.48L400.391 127.68V124.5H401.751V133.72C401.751 135.533 401.305 136.86 400.411 137.7C399.531 138.553 398.225 138.98 396.491 138.98ZM396.231 134.6C395.231 134.6 394.331 134.387 393.531 133.96C392.731 133.52 392.098 132.913 391.631 132.14C391.178 131.367 390.951 130.48 390.951 129.48C390.951 128.48 391.178 127.6 391.631 126.84C392.098 126.067 392.731 125.467 393.531 125.04C394.331 124.613 395.231 124.4 396.231 124.4C397.165 124.4 398.005 124.593 398.751 124.98C399.498 125.367 400.091 125.94 400.531 126.7C400.971 127.46 401.191 128.387 401.191 129.48C401.191 130.573 400.971 131.5 400.531 132.26C400.091 133.02 399.498 133.6 398.751 134C398.005 134.4 397.165 134.6 396.231 134.6ZM396.371 133.34C397.145 133.34 397.831 133.18 398.431 132.86C399.031 132.527 399.505 132.073 399.851 131.5C400.198 130.913 400.371 130.24 400.371 129.48C400.371 128.72 400.198 128.053 399.851 127.48C399.505 126.907 399.031 126.46 398.431 126.14C397.831 125.807 397.145 125.64 396.371 125.64C395.611 125.64 394.925 125.807 394.311 126.14C393.711 126.46 393.238 126.907 392.891 127.48C392.558 128.053 392.391 128.72 392.391 129.48C392.391 130.24 392.558 130.913 392.891 131.5C393.238 132.073 393.711 132.527 394.311 132.86C394.925 133.18 395.611 133.34 396.371 133.34Z" fill="#6D1243"/>
<g filter="url(#filter9_d_105_105)">
<rect x="327" y="252" width="133" height="60" rx="30" fill="#D9D9D9"/>
</g>
<path d="M399.541 273.16H400.921L394.381 291.88H392.921L389.041 281.58H386.441V280.4H390.081L393.821 290.52H393.481L399.541 273.16Z" fill="#6D1243"/>
<g filter="url(#filter10_d_105_105)">
<rect x="327" y="175" width="133" height="60" rx="30" fill="#D9D9D9"/>
</g>
<path d="M384.939 212V209.68L384.879 209.3V205.42C384.879 204.527 384.626 203.84 384.119 203.36C383.626 202.88 382.886 202.64 381.899 202.64C381.219 202.64 380.572 202.753 379.959 202.98C379.346 203.207 378.826 203.507 378.399 203.88L377.759 202.82C378.292 202.367 378.932 202.02 379.679 201.78C380.426 201.527 381.212 201.4 382.039 201.4C383.399 201.4 384.446 201.74 385.179 202.42C385.926 203.087 386.299 204.107 386.299 205.48V212H384.939ZM381.319 212.1C380.532 212.1 379.846 211.973 379.259 211.72C378.686 211.453 378.246 211.093 377.939 210.64C377.632 210.173 377.479 209.64 377.479 209.04C377.479 208.493 377.606 208 377.859 207.56C378.126 207.107 378.552 206.747 379.139 206.48C379.739 206.2 380.539 206.06 381.539 206.06H385.159V207.12H381.579C380.566 207.12 379.859 207.3 379.459 207.66C379.072 208.02 378.879 208.467 378.879 209C378.879 209.6 379.112 210.08 379.579 210.44C380.046 210.8 380.699 210.98 381.539 210.98C382.339 210.98 383.026 210.8 383.599 210.44C384.186 210.067 384.612 209.533 384.879 208.84L385.199 209.82C384.932 210.513 384.466 211.067 383.799 211.48C383.146 211.893 382.319 212.1 381.319 212.1ZM393.476 212.1C392.489 212.1 391.729 211.833 391.196 211.3C390.662 210.767 390.396 210.013 390.396 209.04V199.18H391.816V208.96C391.816 209.573 391.969 210.047 392.276 210.38C392.596 210.713 393.049 210.88 393.636 210.88C394.262 210.88 394.782 210.7 395.196 210.34L395.696 211.36C395.416 211.613 395.076 211.8 394.676 211.92C394.289 212.04 393.889 212.1 393.476 212.1ZM388.516 202.68V201.5H395.016V202.68H388.516ZM402.39 215.98C401.43 215.98 400.51 215.84 399.63 215.56C398.75 215.28 398.036 214.88 397.49 214.36L398.21 213.28C398.703 213.72 399.31 214.067 400.03 214.32C400.763 214.587 401.536 214.72 402.35 214.72C403.683 214.72 404.663 214.407 405.29 213.78C405.916 213.167 406.23 212.207 406.23 210.9V208.28L406.43 206.48L406.29 204.68V201.5H407.65V210.72C407.65 212.533 407.203 213.86 406.31 214.7C405.43 215.553 404.123 215.98 402.39 215.98ZM402.13 211.6C401.13 211.6 400.23 211.387 399.43 210.96C398.63 210.52 397.996 209.913 397.53 209.14C397.076 208.367 396.85 207.48 396.85 206.48C396.85 205.48 397.076 204.6 397.53 203.84C397.996 203.067 398.63 202.467 399.43 202.04C400.23 201.613 401.13 201.4 402.13 201.4C403.063 201.4 403.903 201.593 404.65 201.98C405.396 202.367 405.99 202.94 406.43 203.7C406.87 204.46 407.09 205.387 407.09 206.48C407.09 207.573 406.87 208.5 406.43 209.26C405.99 210.02 405.396 210.6 404.65 211C403.903 211.4 403.063 211.6 402.13 211.6ZM402.27 210.34C403.043 210.34 403.73 210.18 404.33 209.86C404.93 209.527 405.403 209.073 405.75 208.5C406.096 207.913 406.27 207.24 406.27 206.48C406.27 205.72 406.096 205.053 405.75 204.48C405.403 203.907 404.93 203.46 404.33 203.14C403.73 202.807 403.043 202.64 402.27 202.64C401.51 202.64 400.823 202.807 400.21 203.14C399.61 203.46 399.136 203.907 398.79 204.48C398.456 205.053 398.29 205.72 398.29 206.48C398.29 207.24 398.456 207.913 398.79 208.5C399.136 209.073 399.61 209.527 400.21 209.86C400.823 210.18 401.51 210.34 402.27 210.34Z" fill="#6D1243"/>
<g filter="url(#filter11_d_105_105)">
<rect x="477" y="99" width="132" height="60" rx="30" fill="#D9D9D9"/>
</g>
<path d="M535.537 138V123.16H536.957V138H535.537ZM546.268 127.4C547.121 127.4 547.868 127.567 548.508 127.9C549.161 128.22 549.668 128.713 550.028 129.38C550.401 130.047 550.588 130.887 550.588 131.9V138H549.168V132.04C549.168 130.933 548.888 130.1 548.328 129.54C547.781 128.967 547.008 128.68 546.008 128.68C545.261 128.68 544.608 128.833 544.048 129.14C543.501 129.433 543.074 129.867 542.768 130.44C542.474 131 542.328 131.68 542.328 132.48V138H540.908V127.5H542.268V130.38L542.048 129.84C542.381 129.08 542.914 128.487 543.648 128.06C544.381 127.62 545.254 127.4 546.268 127.4Z" fill="#6D1243"/>
<g filter="url(#filter12_d_105_105)">
<rect x="477" y="175" width="132" height="60" rx="30" fill="#D9D9D9"/>
</g>
<path d="M529.179 212V197.16H530.599V212H529.179ZM538.83 212.1C537.817 212.1 536.904 211.873 536.09 211.42C535.29 210.953 534.657 210.32 534.19 209.52C533.724 208.707 533.49 207.78 533.49 206.74C533.49 205.687 533.724 204.76 534.19 203.96C534.657 203.16 535.29 202.533 536.09 202.08C536.89 201.627 537.804 201.4 538.83 201.4C539.87 201.4 540.79 201.627 541.59 202.08C542.404 202.533 543.037 203.16 543.49 203.96C543.957 204.76 544.19 205.687 544.19 206.74C544.19 207.78 543.957 208.707 543.49 209.52C543.037 210.32 542.404 210.953 541.59 211.42C540.777 211.873 539.857 212.1 538.83 212.1ZM538.83 210.84C539.59 210.84 540.264 210.673 540.85 210.34C541.437 209.993 541.897 209.513 542.23 208.9C542.577 208.273 542.75 207.553 542.75 206.74C542.75 205.913 542.577 205.193 542.23 204.58C541.897 203.967 541.437 203.493 540.85 203.16C540.264 202.813 539.597 202.64 538.85 202.64C538.104 202.64 537.437 202.813 536.85 203.16C536.264 203.493 535.797 203.967 535.45 204.58C535.104 205.193 534.93 205.913 534.93 206.74C534.93 207.553 535.104 208.273 535.45 208.9C535.797 209.513 536.264 209.993 536.85 210.34C537.437 210.673 538.097 210.84 538.83 210.84ZM551.569 215.98C550.609 215.98 549.689 215.84 548.809 215.56C547.929 215.28 547.216 214.88 546.669 214.36L547.389 213.28C547.883 213.72 548.489 214.067 549.209 214.32C549.943 214.587 550.716 214.72 551.529 214.72C552.863 214.72 553.843 214.407 554.469 213.78C555.096 213.167 555.409 212.207 555.409 210.9V208.28L555.609 206.48L555.469 204.68V201.5H556.829V210.72C556.829 212.533 556.383 213.86 555.489 214.7C554.609 215.553 553.303 215.98 551.569 215.98ZM551.309 211.6C550.309 211.6 549.409 211.387 548.609 210.96C547.809 210.52 547.176 209.913 546.709 209.14C546.256 208.367 546.029 207.48 546.029 206.48C546.029 205.48 546.256 204.6 546.709 203.84C547.176 203.067 547.809 202.467 548.609 202.04C549.409 201.613 550.309 201.4 551.309 201.4C552.243 201.4 553.083 201.593 553.829 201.98C554.576 202.367 555.169 202.94 555.609 203.7C556.049 204.46 556.269 205.387 556.269 206.48C556.269 207.573 556.049 208.5 555.609 209.26C555.169 210.02 554.576 210.6 553.829 211C553.083 211.4 552.243 211.6 551.309 211.6ZM551.449 210.34C552.223 210.34 552.909 210.18 553.509 209.86C554.109 209.527 554.583 209.073 554.929 208.5C555.276 207.913 555.449 207.24 555.449 206.48C555.449 205.72 555.276 205.053 554.929 204.48C554.583 203.907 554.109 203.46 553.509 203.14C552.909 202.807 552.223 202.64 551.449 202.64C550.689 202.64 550.003 202.807 549.389 203.14C548.789 203.46 548.316 203.907 547.969 204.48C547.636 205.053 547.469 205.72 547.469 206.48C547.469 207.24 547.636 207.913 547.969 208.5C548.316 209.073 548.789 209.527 549.389 209.86C550.003 210.18 550.689 210.34 551.449 210.34Z" fill="#6D1243"/>
<g filter="url(#filter13_d_105_105)">
<rect x="27" y="175" width="132" height="60" rx="30" fill="#D9D9D9"/>
</g>
<path d="M78.8354 212V209.68L78.7754 209.3V205.42C78.7754 204.527 78.5221 203.84 78.0154 203.36C77.5221 202.88 76.7821 202.64 75.7954 202.64C75.1154 202.64 74.4687 202.753 73.8554 202.98C73.2421 203.207 72.7221 203.507 72.2954 203.88L71.6554 202.82C72.1887 202.367 72.8287 202.02 73.5754 201.78C74.3221 201.527 75.1087 201.4 75.9354 201.4C77.2954 201.4 78.3421 201.74 79.0754 202.42C79.8221 203.087 80.1954 204.107 80.1954 205.48V212H78.8354ZM75.2154 212.1C74.4287 212.1 73.7421 211.973 73.1554 211.72C72.5821 211.453 72.1421 211.093 71.8354 210.64C71.5287 210.173 71.3754 209.64 71.3754 209.04C71.3754 208.493 71.5021 208 71.7554 207.56C72.0221 207.107 72.4487 206.747 73.0354 206.48C73.6354 206.2 74.4354 206.06 75.4354 206.06H79.0554V207.12H75.4754C74.4621 207.12 73.7554 207.3 73.3554 207.66C72.9687 208.02 72.7754 208.467 72.7754 209C72.7754 209.6 73.0087 210.08 73.4754 210.44C73.9421 210.8 74.5954 210.98 75.4354 210.98C76.2354 210.98 76.9221 210.8 77.4954 210.44C78.0821 210.067 78.5087 209.533 78.7754 208.84L79.0954 209.82C78.8287 210.513 78.3621 211.067 77.6954 211.48C77.0421 211.893 76.2154 212.1 75.2154 212.1ZM86.8723 212.1C86.0056 212.1 85.1856 211.98 84.4123 211.74C83.6389 211.487 83.0323 211.173 82.5923 210.8L83.2323 209.68C83.6589 210 84.2056 210.28 84.8723 210.52C85.5389 210.747 86.2389 210.86 86.9723 210.86C87.9723 210.86 88.6923 210.707 89.1323 210.4C89.5723 210.08 89.7923 209.66 89.7923 209.14C89.7923 208.753 89.6656 208.453 89.4123 208.24C89.1723 208.013 88.8523 207.847 88.4523 207.74C88.0523 207.62 87.6056 207.52 87.1123 207.44C86.6189 207.36 86.1256 207.267 85.6323 207.16C85.1523 207.053 84.7123 206.9 84.3123 206.7C83.9123 206.487 83.5856 206.2 83.3323 205.84C83.0923 205.48 82.9723 205 82.9723 204.4C82.9723 203.827 83.1323 203.313 83.4523 202.86C83.7723 202.407 84.2389 202.053 84.8523 201.8C85.4789 201.533 86.2389 201.4 87.1323 201.4C87.8123 201.4 88.4923 201.493 89.1723 201.68C89.8523 201.853 90.4123 202.087 90.8523 202.38L90.2323 203.52C89.7656 203.2 89.2656 202.973 88.7323 202.84C88.1989 202.693 87.6656 202.62 87.1323 202.62C86.1856 202.62 85.4856 202.787 85.0323 203.12C84.5923 203.44 84.3723 203.853 84.3723 204.36C84.3723 204.76 84.4923 205.073 84.7323 205.3C84.9856 205.527 85.3123 205.707 85.7123 205.84C86.1256 205.96 86.5723 206.06 87.0523 206.14C87.5456 206.22 88.0323 206.32 88.5123 206.44C89.0056 206.547 89.4523 206.7 89.8523 206.9C90.2656 207.087 90.5923 207.36 90.8323 207.72C91.0856 208.067 91.2123 208.527 91.2123 209.1C91.2123 209.713 91.0389 210.247 90.6923 210.7C90.3589 211.14 89.8656 211.487 89.2123 211.74C88.5723 211.98 87.7923 212.1 86.8723 212.1ZM93.8179 212V201.5H95.2379V212H93.8179ZM94.5379 199.18C94.2446 199.18 93.9979 199.08 93.7979 198.88C93.5979 198.68 93.4979 198.44 93.4979 198.16C93.4979 197.88 93.5979 197.647 93.7979 197.46C93.9979 197.26 94.2446 197.16 94.5379 197.16C94.8312 197.16 95.0779 197.253 95.2779 197.44C95.4779 197.627 95.5779 197.86 95.5779 198.14C95.5779 198.433 95.4779 198.68 95.2779 198.88C95.0912 199.08 94.8446 199.18 94.5379 199.18ZM104.549 201.4C105.402 201.4 106.149 201.567 106.789 201.9C107.442 202.22 107.949 202.713 108.309 203.38C108.682 204.047 108.869 204.887 108.869 205.9V212H107.449V206.04C107.449 204.933 107.169 204.1 106.609 203.54C106.062 202.967 105.289 202.68 104.289 202.68C103.542 202.68 102.889 202.833 102.329 203.14C101.782 203.433 101.356 203.867 101.049 204.44C100.756 205 100.609 205.68 100.609 206.48V212H99.189V201.5H100.549V204.38L100.329 203.84C100.662 203.08 101.196 202.487 101.929 202.06C102.662 201.62 103.536 201.4 104.549 201.4Z" fill="#6D1243"/>
<g filter="url(#filter14_d_105_105)">
<rect x="27" y="252" width="132" height="60" rx="30" fill="#D9D9D9"/>
</g>
<path d="M91.609 291.88C90.8757 290.667 90.3023 289.267 89.889 287.68C89.489 286.08 89.289 284.36 89.289 282.52C89.289 280.68 89.489 278.96 89.889 277.36C90.3023 275.747 90.8757 274.347 91.609 273.16H92.969C92.1823 274.533 91.6023 275.993 91.229 277.54C90.869 279.073 90.689 280.733 90.689 282.52C90.689 284.307 90.869 285.973 91.229 287.52C91.6023 289.053 92.1823 290.507 92.969 291.88H91.609Z" fill="#6D1243"/>
<g filter="url(#filter15_d_105_105)">
<rect x="177" y="175" width="133" height="60" rx="30" fill="#D9D9D9"/>
</g>
<path d="M229.462 212V209.68L229.402 209.3V205.42C229.402 204.527 229.149 203.84 228.642 203.36C228.149 202.88 227.409 202.64 226.422 202.64C225.742 202.64 225.096 202.753 224.482 202.98C223.869 203.207 223.349 203.507 222.922 203.88L222.282 202.82C222.816 202.367 223.456 202.02 224.202 201.78C224.949 201.527 225.736 201.4 226.562 201.4C227.922 201.4 228.969 201.74 229.702 202.42C230.449 203.087 230.822 204.107 230.822 205.48V212H229.462ZM225.842 212.1C225.056 212.1 224.369 211.973 223.782 211.72C223.209 211.453 222.769 211.093 222.462 210.64C222.156 210.173 222.002 209.64 222.002 209.04C222.002 208.493 222.129 208 222.382 207.56C222.649 207.107 223.076 206.747 223.662 206.48C224.262 206.2 225.062 206.06 226.062 206.06H229.682V207.12H226.102C225.089 207.12 224.382 207.3 223.982 207.66C223.596 208.02 223.402 208.467 223.402 209C223.402 209.6 223.636 210.08 224.102 210.44C224.569 210.8 225.222 210.98 226.062 210.98C226.862 210.98 227.549 210.8 228.122 210.44C228.709 210.067 229.136 209.533 229.402 208.84L229.722 209.82C229.456 210.513 228.989 211.067 228.322 211.48C227.669 211.893 226.842 212.1 225.842 212.1ZM239.039 212.1C237.999 212.1 237.066 211.873 236.239 211.42C235.426 210.953 234.786 210.32 234.319 209.52C233.853 208.707 233.619 207.78 233.619 206.74C233.619 205.687 233.853 204.76 234.319 203.96C234.786 203.16 235.426 202.533 236.239 202.08C237.066 201.627 237.999 201.4 239.039 201.4C239.933 201.4 240.739 201.573 241.459 201.92C242.179 202.267 242.746 202.787 243.159 203.48L242.099 204.2C241.739 203.667 241.293 203.273 240.759 203.02C240.226 202.767 239.646 202.64 239.019 202.64C238.273 202.64 237.599 202.813 236.999 203.16C236.399 203.493 235.926 203.967 235.579 204.58C235.233 205.193 235.059 205.913 235.059 206.74C235.059 207.567 235.233 208.287 235.579 208.9C235.926 209.513 236.399 209.993 236.999 210.34C237.599 210.673 238.273 210.84 239.019 210.84C239.646 210.84 240.226 210.713 240.759 210.46C241.293 210.207 241.739 209.82 242.099 209.3L243.159 210.02C242.746 210.7 242.179 211.22 241.459 211.58C240.739 211.927 239.933 212.1 239.039 212.1ZM250.053 212.1C249.04 212.1 248.126 211.873 247.313 211.42C246.513 210.953 245.88 210.32 245.413 209.52C244.946 208.707 244.713 207.78 244.713 206.74C244.713 205.687 244.946 204.76 245.413 203.96C245.88 203.16 246.513 202.533 247.313 202.08C248.113 201.627 249.026 201.4 250.053 201.4C251.093 201.4 252.013 201.627 252.813 202.08C253.626 202.533 254.26 203.16 254.713 203.96C255.18 204.76 255.413 205.687 255.413 206.74C255.413 207.78 255.18 208.707 254.713 209.52C254.26 210.32 253.626 210.953 252.813 211.42C252 211.873 251.08 212.1 250.053 212.1ZM250.053 210.84C250.813 210.84 251.486 210.673 252.073 210.34C252.66 209.993 253.12 209.513 253.453 208.9C253.8 208.273 253.973 207.553 253.973 206.74C253.973 205.913 253.8 205.193 253.453 204.58C253.12 203.967 252.66 203.493 252.073 203.16C251.486 202.813 250.82 202.64 250.073 202.64C249.326 202.64 248.66 202.813 248.073 203.16C247.486 203.493 247.02 203.967 246.673 204.58C246.326 205.193 246.153 205.913 246.153 206.74C246.153 207.553 246.326 208.273 246.673 208.9C247.02 209.513 247.486 209.993 248.073 210.34C248.66 210.673 249.32 210.84 250.053 210.84ZM261.132 212.1C260.265 212.1 259.445 211.98 258.672 211.74C257.899 211.487 257.292 211.173 256.852 210.8L257.492 209.68C257.919 210 258.465 210.28 259.132 210.52C259.799 210.747 260.499 210.86 261.232 210.86C262.232 210.86 262.952 210.707 263.392 210.4C263.832 210.08 264.052 209.66 264.052 209.14C264.052 208.753 263.925 208.453 263.672 208.24C263.432 208.013 263.112 207.847 262.712 207.74C262.312 207.62 261.865 207.52 261.372 207.44C260.879 207.36 260.385 207.267 259.892 207.16C259.412 207.053 258.972 206.9 258.572 206.7C258.172 206.487 257.845 206.2 257.592 205.84C257.352 205.48 257.232 205 257.232 204.4C257.232 203.827 257.392 203.313 257.712 202.86C258.032 202.407 258.499 202.053 259.112 201.8C259.739 201.533 260.499 201.4 261.392 201.4C262.072 201.4 262.752 201.493 263.432 201.68C264.112 201.853 264.672 202.087 265.112 202.38L264.492 203.52C264.025 203.2 263.525 202.973 262.992 202.84C262.459 202.693 261.925 202.62 261.392 202.62C260.445 202.62 259.745 202.787 259.292 203.12C258.852 203.44 258.632 203.853 258.632 204.36C258.632 204.76 258.752 205.073 258.992 205.3C259.245 205.527 259.572 205.707 259.972 205.84C260.385 205.96 260.832 206.06 261.312 206.14C261.805 206.22 262.292 206.32 262.772 206.44C263.265 206.547 263.712 206.7 264.112 206.9C264.525 207.087 264.852 207.36 265.092 207.72C265.345 208.067 265.472 208.527 265.472 209.1C265.472 209.713 265.299 210.247 264.952 210.7C264.619 211.14 264.125 211.487 263.472 211.74C262.832 211.98 262.052 212.1 261.132 212.1Z" fill="#6D1243"/>
<g filter="url(#filter16_d_105_105)">
<rect x="177" y="252" width="133" height="60" rx="30" fill="#D9D9D9"/>
</g>
<path d="M242.369 291.88H241.009C241.809 290.507 242.389 289.053 242.749 287.52C243.122 285.973 243.309 284.307 243.309 282.52C243.309 280.733 243.122 279.073 242.749 277.54C242.389 275.993 241.809 274.533 241.009 273.16H242.369C243.129 274.347 243.709 275.747 244.109 277.36C244.509 278.96 244.709 280.68 244.709 282.52C244.709 284.36 244.509 286.08 244.109 287.68C243.709 289.267 243.129 290.667 242.369 291.88Z" fill="#6D1243"/>
<g filter="url(#filter17_d_105_105)">
<rect x="177" y="327" width="133" height="61" rx="30" fill="#DFB7C6"/>
</g>
<path d="M242.983 367.12C241.863 367.12 240.896 366.96 240.083 366.64C239.283 366.32 238.663 365.86 238.223 365.26C237.796 364.647 237.583 363.927 237.583 363.1C237.583 362.3 237.79 361.62 238.203 361.06C238.63 360.487 239.243 360.047 240.043 359.74C240.856 359.433 241.836 359.28 242.983 359.28C244.116 359.28 245.09 359.433 245.903 359.74C246.716 360.047 247.336 360.487 247.763 361.06C248.203 361.62 248.423 362.3 248.423 363.1C248.423 363.927 248.203 364.647 247.763 365.26C247.323 365.86 246.696 366.32 245.883 366.64C245.07 366.96 244.103 367.12 242.983 367.12ZM242.983 365.9C244.223 365.9 245.19 365.647 245.883 365.14C246.59 364.633 246.943 363.947 246.943 363.08C246.943 362.213 246.59 361.533 245.883 361.04C245.19 360.533 244.223 360.28 242.983 360.28C241.743 360.28 240.776 360.533 240.083 361.04C239.39 361.533 239.043 362.213 239.043 363.08C239.043 363.947 239.39 364.633 240.083 365.14C240.776 365.647 241.743 365.9 242.983 365.9ZM242.983 360.1C241.943 360.1 241.056 359.96 240.323 359.68C239.603 359.4 239.05 359 238.663 358.48C238.276 357.947 238.083 357.313 238.083 356.58C238.083 355.807 238.283 355.147 238.683 354.6C239.096 354.04 239.67 353.613 240.403 353.32C241.136 353.027 241.996 352.88 242.983 352.88C243.97 352.88 244.83 353.027 245.563 353.32C246.31 353.613 246.89 354.04 247.303 354.6C247.716 355.147 247.923 355.807 247.923 356.58C247.923 357.313 247.73 357.947 247.343 358.48C246.956 359 246.39 359.4 245.643 359.68C244.91 359.96 244.023 360.1 242.983 360.1ZM242.983 359.14C244.076 359.14 244.93 358.913 245.543 358.46C246.156 358.007 246.463 357.4 246.463 356.64C246.463 355.84 246.143 355.22 245.503 354.78C244.876 354.327 244.036 354.1 242.983 354.1C241.93 354.1 241.09 354.327 240.463 354.78C239.836 355.22 239.523 355.833 239.523 356.62C239.523 357.393 239.823 358.007 240.423 358.46C241.036 358.913 241.89 359.14 242.983 359.14Z" fill="#6D1243"/>
<g filter="url(#filter18_d_105_105)">
<rect x="477" y="403" width="132" height="60" rx="30" fill="#D9D9D9"/>
</g>
<path d="M539.029 438L542.581 433.392L542.565 433.952L539.189 429.6H540.469L543.237 433.2L542.757 433.184L545.525 429.6H546.773L543.365 434L543.381 433.392L546.965 438H545.669L542.741 434.16L543.189 434.224L540.309 438H539.029Z" fill="#6D1243"/>
<g filter="url(#filter19_d_105_105)">
<rect x="327" y="480" width="133" height="60" rx="30" fill="#DFB7C6"/>
</g>
<path d="M394.575 517.12C393.562 517.12 392.602 516.96 391.695 516.64C390.802 516.307 390.082 515.867 389.535 515.32L390.235 514.18C390.689 514.647 391.295 515.033 392.055 515.34C392.829 515.647 393.669 515.8 394.575 515.8C395.735 515.8 396.622 515.547 397.235 515.04C397.862 514.533 398.175 513.853 398.175 513C398.175 512.147 397.869 511.467 397.255 510.96C396.655 510.453 395.702 510.2 394.395 510.2H393.395V509.14L397.715 503.72L397.915 504.28H390.115V503H399.115V504.02L394.795 509.44L394.095 508.98H394.635C396.315 508.98 397.569 509.353 398.395 510.1C399.235 510.847 399.655 511.807 399.655 512.98C399.655 513.767 399.469 514.473 399.095 515.1C398.722 515.727 398.155 516.22 397.395 516.58C396.649 516.94 395.709 517.12 394.575 517.12Z" fill="#6D1243"/>
<g filter="url(#filter20_d_105_105)">
<rect x="327" y="403" width="133" height="60" rx="30" fill="#DFB7C6"/>
</g>
<path d="M393.686 441.12C392.446 441.12 391.4 440.847 390.546 440.3C389.693 439.74 389.046 438.94 388.606 437.9C388.166 436.847 387.946 435.587 387.946 434.12C387.946 432.533 388.213 431.207 388.746 430.14C389.293 429.06 390.046 428.247 391.006 427.7C391.966 427.153 393.08 426.88 394.346 426.88C394.973 426.88 395.573 426.94 396.146 427.06C396.72 427.18 397.226 427.373 397.666 427.64L397.086 428.8C396.726 428.56 396.313 428.393 395.846 428.3C395.38 428.193 394.886 428.14 394.366 428.14C392.86 428.14 391.653 428.62 390.746 429.58C389.853 430.54 389.406 431.973 389.406 433.88C389.406 434.173 389.42 434.54 389.446 434.98C389.486 435.407 389.566 435.833 389.686 436.26L389.186 435.88C389.333 435.187 389.62 434.6 390.046 434.12C390.473 433.627 391.006 433.253 391.646 433C392.286 432.747 392.986 432.62 393.746 432.62C394.68 432.62 395.5 432.793 396.206 433.14C396.913 433.487 397.466 433.973 397.866 434.6C398.266 435.227 398.466 435.967 398.466 436.82C398.466 437.687 398.26 438.447 397.846 439.1C397.433 439.74 396.86 440.24 396.126 440.6C395.406 440.947 394.593 441.12 393.686 441.12ZM393.626 439.9C394.293 439.9 394.88 439.78 395.386 439.54C395.906 439.287 396.313 438.933 396.606 438.48C396.9 438.013 397.046 437.473 397.046 436.86C397.046 435.94 396.726 435.207 396.086 434.66C395.46 434.113 394.606 433.84 393.526 433.84C392.806 433.84 392.18 433.973 391.646 434.24C391.113 434.507 390.693 434.873 390.386 435.34C390.08 435.793 389.926 436.313 389.926 436.9C389.926 437.407 390.066 437.893 390.346 438.36C390.626 438.813 391.04 439.187 391.586 439.48C392.146 439.76 392.826 439.9 393.626 439.9Z" fill="#6D1243"/>
<g filter="url(#filter21_d_105_105)">
<rect x="327" y="556" width="133" height="60" rx="30" fill="#D9D9D9"/>
</g>
<path d="M392.001 592.92L392.881 589.22L393.041 590.08C392.734 590.08 392.474 589.98 392.261 589.78C392.061 589.58 391.961 589.32 391.961 589C391.961 588.68 392.061 588.42 392.261 588.22C392.474 588.02 392.728 587.92 393.021 587.92C393.328 587.92 393.574 588.027 393.761 588.24C393.961 588.453 394.061 588.707 394.061 589C394.061 589.107 394.054 589.213 394.041 589.32C394.028 589.427 394.001 589.547 393.961 589.68C393.921 589.813 393.868 589.973 393.801 590.16L392.961 592.92H392.001Z" fill="#6D1243"/>
<g filter="url(#filter22_d_105_105)">
<rect x="27" y="632" width="582" height="60" rx="30" fill="#D9D9D9"/>
</g>
<path d="M308.778 664.536V663.12H319.218V664.536H308.778ZM308.778 670.08V668.664H319.218V670.08H308.778Z" fill="#6D1243"/>
<g filter="url(#filter23_d_105_105)">
<rect x="477" y="556" width="132" height="60" rx="30" fill="#D9D9D9"/>
</g>
<path d="M543.368 591.24V582.76H544.628V591.24H543.368ZM539.648 587.6V586.42H548.348V587.6H539.648Z" fill="#6D1243"/>
<g filter="url(#filter24_d_105_105)">
<rect x="477" y="480" width="132" height="60" rx="30" fill="#D9D9D9"/>
</g>
<path d="M541.382 511.2V509.96H546.622V511.2H541.382Z" fill="#6D1243"/>
<g filter="url(#filter25_d_105_105)">
<rect x="327" y="23" width="282" height="60" rx="30" fill="#DFB7C6"/>
</g>
<path d="M451.605 62L444.357 53.672L451.605 45.344H470.637V62H451.605ZM452.493 60.296H468.909V47.048H452.493L446.685 53.672L452.493 60.296ZM455.973 59.36L454.701 58.16L458.973 53.672L454.701 49.184L455.949 47.984L460.173 52.424L464.397 47.984L465.645 49.184L461.373 53.672L465.645 58.16L464.373 59.36L460.173 54.944L455.973 59.36Z" fill="#6D1243"/>
<g filter="url(#filter26_d_105_105)">
<rect x="27" y="403" width="132" height="60" rx="30" fill="#DFB7C6"/>
</g>
<path d="M85.1887 437.32V436.28L92.6087 427H94.2087L86.8487 436.28L86.0687 436.04H97.3287V437.32H85.1887ZM93.0887 441V437.32L93.1287 436.04V432.8H94.5287V441H93.0887Z" fill="#6D1243"/>
<g filter="url(#filter27_d_105_105)">
<rect x="27" y="480" width="132" height="60" rx="30" fill="#DFB7C6"/>
</g>
<path d="M90.8667 517V503.6L91.5067 504.28H87.5667V503H92.3067V517H90.8667Z" fill="#6D1243"/>
<g filter="url(#filter28_d_105_105)">
<rect x="27" y="556" width="132" height="60" rx="30" fill="#D9D9D9"/>
</g>
<path d="M87.648 593V591.82H96.348V593H87.648ZM91.368 589.54V581.18H92.628V589.54H91.368ZM87.648 585.96V584.76H96.348V585.96H87.648Z" fill="#6D1243"/>
<g filter="url(#filter29_d_105_105)">
<rect x="177" y="403" width="133" height="60" rx="30" fill="#DFB7C6"/>
</g>
<path d="M242.796 441.12C241.796 441.12 240.843 440.96 239.936 440.64C239.029 440.307 238.309 439.867 237.776 439.32L238.476 438.18C238.916 438.647 239.516 439.033 240.276 439.34C241.049 439.647 241.883 439.8 242.776 439.8C243.963 439.8 244.863 439.54 245.476 439.02C246.103 438.487 246.416 437.793 246.416 436.94C246.416 436.34 246.269 435.827 245.976 435.4C245.696 434.96 245.216 434.62 244.536 434.38C243.856 434.14 242.923 434.02 241.736 434.02H238.756L239.476 427H247.136V428.28H240.056L240.796 427.58L240.176 433.46L239.436 432.74H242.056C243.469 432.74 244.603 432.913 245.456 433.26C246.309 433.607 246.923 434.093 247.296 434.72C247.683 435.333 247.876 436.053 247.876 436.88C247.876 437.667 247.689 438.387 247.316 439.04C246.943 439.68 246.383 440.187 245.636 440.56C244.889 440.933 243.943 441.12 242.796 441.12Z" fill="#6D1243"/>
<g filter="url(#filter30_d_105_105)">
<rect x="177" y="480" width="133" height="60" rx="30" fill="#DFB7C6"/>
</g>
<path d="M238.096 517V515.98L243.916 510.28C244.45 509.76 244.85 509.307 245.116 508.92C245.383 508.52 245.563 508.147 245.656 507.8C245.75 507.453 245.796 507.127 245.796 506.82C245.796 506.007 245.516 505.367 244.956 504.9C244.41 504.433 243.596 504.2 242.516 504.2C241.69 504.2 240.956 504.327 240.316 504.58C239.69 504.833 239.15 505.227 238.696 505.76L237.676 504.88C238.223 504.24 238.923 503.747 239.776 503.4C240.63 503.053 241.583 502.88 242.636 502.88C243.583 502.88 244.403 503.033 245.096 503.34C245.79 503.633 246.323 504.067 246.696 504.64C247.083 505.213 247.276 505.887 247.276 506.66C247.276 507.113 247.21 507.56 247.076 508C246.956 508.44 246.73 508.907 246.396 509.4C246.076 509.88 245.603 510.427 244.976 511.04L239.636 516.28L239.236 515.72H247.916V517H238.096Z" fill="#6D1243"/>
<g filter="url(#filter31_d_105_105)">
<rect x="177" y="556" width="133" height="60" rx="30" fill="#DFB7C6"/>
</g>
<path d="M242.999 593.12C241.919 593.12 240.959 592.84 240.119 592.28C239.279 591.707 238.619 590.893 238.139 589.84C237.659 588.773 237.419 587.493 237.419 586C237.419 584.507 237.659 583.233 238.139 582.18C238.619 581.113 239.279 580.3 240.119 579.74C240.959 579.167 241.919 578.88 242.999 578.88C244.079 578.88 245.039 579.167 245.879 579.74C246.719 580.3 247.379 581.113 247.859 582.18C248.352 583.233 248.599 584.507 248.599 586C248.599 587.493 248.352 588.773 247.859 589.84C247.379 590.893 246.719 591.707 245.879 592.28C245.039 592.84 244.079 593.12 242.999 593.12ZM242.999 591.8C243.826 591.8 244.546 591.58 245.159 591.14C245.772 590.687 246.252 590.033 246.599 589.18C246.946 588.313 247.119 587.253 247.119 586C247.119 584.747 246.946 583.693 246.599 582.84C246.252 581.973 245.772 581.32 245.159 580.88C244.546 580.427 243.826 580.2 242.999 580.2C242.199 580.2 241.486 580.427 240.859 580.88C240.232 581.32 239.746 581.973 239.399 582.84C239.052 583.693 238.879 584.747 238.879 586C238.879 587.253 239.052 588.313 239.399 589.18C239.746 590.033 240.232 590.687 240.859 591.14C241.486 591.58 242.199 591.8 242.999 591.8Z" fill="#6D1243"/>
<defs>
<filter id="filter0_d_105_105" x="0" y="76" width="186" height="114" filterUnits="userSpaceOnUse" color-interpolation-filters="sRGB">
<feFlood flood-opacity="0" result="BackgroundImageFix"/>
<feColorMatrix in="SourceAlpha" type="matrix" values="0 0 0 0 0 0 0 0 0 0 0 0 0 0 0 0 0 0 127 0" result="hardAlpha"/>
<feMorphology radius="7" operator="dilate" in="SourceAlpha" result="effect1_dropShadow_105_105"/>
<feOffset dy="4"/>
<feGaussianBlur stdDeviation="10"/>
<feComposite in2="hardAlpha" operator="out"/>
<feColorMatrix type="matrix" values="0 0 0 0 1 0 0 0 0 0.229167 0 0 0 0 0.691667 0 0 0 0.4 0"/>
<feBlend mode="normal" in2="BackgroundImageFix" result="effect1_dropShadow_105_105"/>
<feBlend mode="normal" in="SourceGraphic" in2="effect1_dropShadow_105_105" result="shape"/>
</filter>
<filter id="filter1_d_105_105" x="0" y="0" width="186" height="114" filterUnits="userSpaceOnUse" color-interpolation-filters="sRGB">
<feFlood flood-opacity="0" result="BackgroundImageFix"/>
<feColorMatrix in="SourceAlpha" type="matrix" values="0 0 0 0 0 0 0 0 0 0 0 0 0 0 0 0 0 0 127 0" result="hardAlpha"/>
<feMorphology radius="7" operator="dilate" in="SourceAlpha" result="effect1_dropShadow_105_105"/>
<feOffset dy="4"/>
<feGaussianBlur stdDeviation="10"/>
<feComposite in2="hardAlpha" operator="out"/>
<feColorMatrix type="matrix" values="0 0 0 0 1 0 0 0 0 0.229167 0 0 0 0 0.691667 0 0 0 0.4 0"/>
<feBlend mode="normal" in2="BackgroundImageFix" result="effect1_dropShadow_105_105"/>
<feBlend mode="normal" in="SourceGraphic" in2="effect1_dropShadow_105_105" result="shape"/>
</filter>
<filter id="filter2_d_105_105" x="450" y="229" width="186" height="114" filterUnits="userSpaceOnUse" color-interpolation-filters="sRGB">
<feFlood flood-opacity="0" result="BackgroundImageFix"/>
<feColorMatrix in="SourceAlpha" type="matrix" values="0 0 0 0 0 0 0 0 0 0 0 0 0 0 0 0 0 0 127 0" result="hardAlpha"/>
<feMorphology radius="7" operator="dilate" in="SourceAlpha" result="effect1_dropShadow_105_105"/>
<feOffset dy="4"/>
<feGaussianBlur stdDeviation="10"/>
<feComposite in2="hardAlpha" operator="out"/>
<feColorMatrix type="matrix" values="0 0 0 0 1 0 0 0 0 0.229167 0 0 0 0 0.691667 0 0 0 0.4 0"/>
<feBlend mode="normal" in2="BackgroundImageFix" result="effect1_dropShadow_105_105"/>
<feBlend mode="normal" in="SourceGraphic" in2="effect1_dropShadow_105_105" result="shape"/>
</filter>
<filter id="filter3_d_105_105" x="0" y="304" width="186" height="115" filterUnits="userSpaceOnUse" color-interpolation-filters="sRGB">
<feFlood flood-opacity="0" result="BackgroundImageFix"/>
<feColorMatrix in="SourceAlpha" type="matrix" values="0 0 0 0 0 0 0 0 0 0 0 0 0 0 0 0 0 0 127 0" result="hardAlpha"/>
<feMorphology radius="7" operator="dilate" in="SourceAlpha" result="effect1_dropShadow_105_105"/>
<feOffset dy="4"/>
<feGaussianBlur stdDeviation="10"/>
<feComposite in2="hardAlpha" operator="out"/>
<feColorMatrix type="matrix" values="0 0 0 0 1 0 0 0 0 0.229167 0 0 0 0 0.691667 0 0 0 0.4 0"/>
<feBlend mode="normal" in2="BackgroundImageFix" result="effect1_dropShadow_105_105"/>
<feBlend mode="normal" in="SourceGraphic" in2="effect1_dropShadow_105_105" result="shape"/>
</filter>
<filter id="filter4_d_105_105" x="300" y="304" width="187" height="115" filterUnits="userSpaceOnUse" color-interpolation-filters="sRGB">
<feFlood flood-opacity="0" result="BackgroundImageFix"/>
<feColorMatrix in="SourceAlpha" type="matrix" values="0 0 0 0 0 0 0 0 0 0 0 0 0 0 0 0 0 0 127 0" result="hardAlpha"/>
<feMorphology radius="7" operator="dilate" in="SourceAlpha" result="effect1_dropShadow_105_105"/>
<feOffset dy="4"/>
<feGaussianBlur stdDeviation="10"/>
<feComposite in2="hardAlpha" operator="out"/>
<feColorMatrix type="matrix" values="0 0 0 0 1 0 0 0 0 0.229167 0 0 0 0 0.691667 0 0 0 0.4 0"/>
<feBlend mode="normal" in2="BackgroundImageFix" result="effect1_dropShadow_105_105"/>
<feBlend mode="normal" in="SourceGraphic" in2="effect1_dropShadow_105_105" result="shape"/>
</filter>
<filter id="filter5_d_105_105" x="450" y="304" width="186" height="115" filterUnits="userSpaceOnUse" color-interpolation-filters="sRGB">
<feFlood flood-opacity="0" result="BackgroundImageFix"/>
<feColorMatrix in="SourceAlpha" type="matrix" values="0 0 0 0 0 0 0 0 0 0 0 0 0 0 0 0 0 0 127 0" result="hardAlpha"/>
<feMorphology radius="7" operator="dilate" in="SourceAlpha" result="effect1_dropShadow_105_105"/>
<feOffset dy="4"/>
<feGaussianBlur stdDeviation="10"/>
<feComposite in2="hardAlpha" operator="out"/>
<feColorMatrix type="matrix" values="0 0 0 0 1 0 0 0 0 0.229167 0 0 0 0 0.691667 0 0 0 0.4 0"/>
<feBlend mode="normal" in2="BackgroundImageFix" result="effect1_dropShadow_105_105"/>
<feBlend mode="normal" in="SourceGraphic" in2="effect1_dropShadow_105_105" result="shape"/>
</filter>
<filter id="filter6_d_105_105" x="150" y="0" width="187" height="114" filterUnits="userSpaceOnUse" color-interpolation-filters="sRGB">
<feFlood flood-opacity="0" result="BackgroundImageFix"/>
<feColorMatrix in="SourceAlpha" type="matrix" values="0 0 0 0 0 0 0 0 0 0 0 0 0 0 0 0 0 0 127 0" result="hardAlpha"/>
<feMorphology radius="7" operator="dilate" in="SourceAlpha" result="effect1_dropShadow_105_105"/>
<feOffset dy="4"/>
<feGaussianBlur stdDeviation="10"/>
<feComposite in2="hardAlpha" operator="out"/>
<feColorMatrix type="matrix" values="0 0 0 0 1 0 0 0 0 0.229167 0 0 0 0 0.691667 0 0 0 0.4 0"/>
<feBlend mode="normal" in2="BackgroundImageFix" result="effect1_dropShadow_105_105"/>
<feBlend mode="normal" in="SourceGraphic" in2="effect1_dropShadow_105_105" result="shape"/>
</filter>
<filter id="filter7_d_105_105" x="150" y="76" width="187" height="114" filterUnits="userSpaceOnUse" color-interpolation-filters="sRGB">
<feFlood flood-opacity="0" result="BackgroundImageFix"/>
<feColorMatrix in="SourceAlpha" type="matrix" values="0 0 0 0 0 0 0 0 0 0 0 0 0 0 0 0 0 0 127 0" result="hardAlpha"/>
<feMorphology radius="7" operator="dilate" in="SourceAlpha" result="effect1_dropShadow_105_105"/>
<feOffset dy="4"/>
<feGaussianBlur stdDeviation="10"/>
<feComposite in2="hardAlpha" operator="out"/>
<feColorMatrix type="matrix" values="0 0 0 0 1 0 0 0 0 0.229167 0 0 0 0 0.691667 0 0 0 0.4 0"/>
<feBlend mode="normal" in2="BackgroundImageFix" result="effect1_dropShadow_105_105"/>
<feBlend mode="normal" in="SourceGraphic" in2="effect1_dropShadow_105_105" result="shape"/>
</filter>
<filter id="filter8_d_105_105" x="300" y="76" width="187" height="114" filterUnits="userSpaceOnUse" color-interpolation-filters="sRGB">
<feFlood flood-opacity="0" result="BackgroundImageFix"/>
<feColorMatrix in="SourceAlpha" type="matrix" values="0 0 0 0 0 0 0 0 0 0 0 0 0 0 0 0 0 0 127 0" result="hardAlpha"/>
<feMorphology radius="7" operator="dilate" in="SourceAlpha" result="effect1_dropShadow_105_105"/>
<feOffset dy="4"/>
<feGaussianBlur stdDeviation="10"/>
<feComposite in2="hardAlpha" operator="out"/>
<feColorMatrix type="matrix" values="0 0 0 0 1 0 0 0 0 0.229167 0 0 0 0 0.691667 0 0 0 0.4 0"/>
<feBlend mode="normal" in2="BackgroundImageFix" result="effect1_dropShadow_105_105"/>
<feBlend mode="normal" in="SourceGraphic" in2="effect1_dropShadow_105_105" result="shape"/>
</filter>
<filter id="filter9_d_105_105" x="300" y="229" width="187" height="114" filterUnits="userSpaceOnUse" color-interpolation-filters="sRGB">
<feFlood flood-opacity="0" result="BackgroundImageFix"/>
<feColorMatrix in="SourceAlpha" type="matrix" values="0 0 0 0 0 0 0 0 0 0 0 0 0 0 0 0 0 0 127 0" result="hardAlpha"/>
<feMorphology radius="7" operator="dilate" in="SourceAlpha" result="effect1_dropShadow_105_105"/>
<feOffset dy="4"/>
<feGaussianBlur stdDeviation="10"/>
<feComposite in2="hardAlpha" operator="out"/>
<feColorMatrix type="matrix" values="0 0 0 0 1 0 0 0 0 0.229167 0 0 0 0 0.691667 0 0 0 0.4 0"/>
<feBlend mode="normal" in2="BackgroundImageFix" result="effect1_dropShadow_105_105"/>
<feBlend mode="normal" in="SourceGraphic" in2="effect1_dropShadow_105_105" result="shape"/>
</filter>
<filter id="filter10_d_105_105" x="300" y="152" width="187" height="114" filterUnits="userSpaceOnUse" color-interpolation-filters="sRGB">
<feFlood flood-opacity="0" result="BackgroundImageFix"/>
<feColorMatrix in="SourceAlpha" type="matrix" values="0 0 0 0 0 0 0 0 0 0 0 0 0 0 0 0 0 0 127 0" result="hardAlpha"/>
<feMorphology radius="7" operator="dilate" in="SourceAlpha" result="effect1_dropShadow_105_105"/>
<feOffset dy="4"/>
<feGaussianBlur stdDeviation="10"/>
<feComposite in2="hardAlpha" operator="out"/>
<feColorMatrix type="matrix" values="0 0 0 0 1 0 0 0 0 0.229167 0 0 0 0 0.691667 0 0 0 0.4 0"/>
<feBlend mode="normal" in2="BackgroundImageFix" result="effect1_dropShadow_105_105"/>
<feBlend mode="normal" in="SourceGraphic" in2="effect1_dropShadow_105_105" result="shape"/>
</filter>
<filter id="filter11_d_105_105" x="450" y="76" width="186" height="114" filterUnits="userSpaceOnUse" color-interpolation-filters="sRGB">
<feFlood flood-opacity="0" result="BackgroundImageFix"/>
<feColorMatrix in="SourceAlpha" type="matrix" values="0 0 0 0 0 0 0 0 0 0 0 0 0 0 0 0 0 0 127 0" result="hardAlpha"/>
<feMorphology radius="7" operator="dilate" in="SourceAlpha" result="effect1_dropShadow_105_105"/>
<feOffset dy="4"/>
<feGaussianBlur stdDeviation="10"/>
<feComposite in2="hardAlpha" operator="out"/>
<feColorMatrix type="matrix" values="0 0 0 0 1 0 0 0 0 0.229167 0 0 0 0 0.691667 0 0 0 0.4 0"/>
<feBlend mode="normal" in2="BackgroundImageFix" result="effect1_dropShadow_105_105"/>
<feBlend mode="normal" in="SourceGraphic" in2="effect1_dropShadow_105_105" result="shape"/>
</filter>
<filter id="filter12_d_105_105" x="450" y="152" width="186" height="114" filterUnits="userSpaceOnUse" color-interpolation-filters="sRGB">
<feFlood flood-opacity="0" result="BackgroundImageFix"/>
<feColorMatrix in="SourceAlpha" type="matrix" values="0 0 0 0 0 0 0 0 0 0 0 0 0 0 0 0 0 0 127 0" result="hardAlpha"/>
<feMorphology radius="7" operator="dilate" in="SourceAlpha" result="effect1_dropShadow_105_105"/>
<feOffset dy="4"/>
<feGaussianBlur stdDeviation="10"/>
<feComposite in2="hardAlpha" operator="out"/>
<feColorMatrix type="matrix" values="0 0 0 0 1 0 0 0 0 0.229167 0 0 0 0 0.691667 0 0 0 0.4 0"/>
<feBlend mode="normal" in2="BackgroundImageFix" result="effect1_dropShadow_105_105"/>
<feBlend mode="normal" in="SourceGraphic" in2="effect1_dropShadow_105_105" result="shape"/>
</filter>
<filter id="filter13_d_105_105" x="0" y="152" width="186" height="114" filterUnits="userSpaceOnUse" color-interpolation-filters="sRGB">
<feFlood flood-opacity="0" result="BackgroundImageFix"/>
<feColorMatrix in="SourceAlpha" type="matrix" values="0 0 0 0 0 0 0 0 0 0 0 0 0 0 0 0 0 0 127 0" result="hardAlpha"/>
<feMorphology radius="7" operator="dilate" in="SourceAlpha" result="effect1_dropShadow_105_105"/>
<feOffset dy="4"/>
<feGaussianBlur stdDeviation="10"/>
<feComposite in2="hardAlpha" operator="out"/>
<feColorMatrix type="matrix" values="0 0 0 0 1 0 0 0 0 0.229167 0 0 0 0 0.691667 0 0 0 0.4 0"/>
<feBlend mode="normal" in2="BackgroundImageFix" result="effect1_dropShadow_105_105"/>
<feBlend mode="normal" in="SourceGraphic" in2="effect1_dropShadow_105_105" result="shape"/>
</filter>
<filter id="filter14_d_105_105" x="0" y="229" width="186" height="114" filterUnits="userSpaceOnUse" color-interpolation-filters="sRGB">
<feFlood flood-opacity="0" result="BackgroundImageFix"/>
<feColorMatrix in="SourceAlpha" type="matrix" values="0 0 0 0 0 0 0 0 0 0 0 0 0 0 0 0 0 0 127 0" result="hardAlpha"/>
<feMorphology radius="7" operator="dilate" in="SourceAlpha" result="effect1_dropShadow_105_105"/>
<feOffset dy="4"/>
<feGaussianBlur stdDeviation="10"/>
<feComposite in2="hardAlpha" operator="out"/>
<feColorMatrix type="matrix" values="0 0 0 0 1 0 0 0 0 0.229167 0 0 0 0 0.691667 0 0 0 0.4 0"/>
<feBlend mode="normal" in2="BackgroundImageFix" result="effect1_dropShadow_105_105"/>
<feBlend mode="normal" in="SourceGraphic" in2="effect1_dropShadow_105_105" result="shape"/>
</filter>
<filter id="filter15_d_105_105" x="150" y="152" width="187" height="114" filterUnits="userSpaceOnUse" color-interpolation-filters="sRGB">
<feFlood flood-opacity="0" result="BackgroundImageFix"/>
<feColorMatrix in="SourceAlpha" type="matrix" values="0 0 0 0 0 0 0 0 0 0 0 0 0 0 0 0 0 0 127 0" result="hardAlpha"/>
<feMorphology radius="7" operator="dilate" in="SourceAlpha" result="effect1_dropShadow_105_105"/>
<feOffset dy="4"/>
<feGaussianBlur stdDeviation="10"/>
<feComposite in2="hardAlpha" operator="out"/>
<feColorMatrix type="matrix" values="0 0 0 0 1 0 0 0 0 0.229167 0 0 0 0 0.691667 0 0 0 0.4 0"/>
<feBlend mode="normal" in2="BackgroundImageFix" result="effect1_dropShadow_105_105"/>
<feBlend mode="normal" in="SourceGraphic" in2="effect1_dropShadow_105_105" result="shape"/>
</filter>
<filter id="filter16_d_105_105" x="150" y="229" width="187" height="114" filterUnits="userSpaceOnUse" color-interpolation-filters="sRGB">
<feFlood flood-opacity="0" result="BackgroundImageFix"/>
<feColorMatrix in="SourceAlpha" type="matrix" values="0 0 0 0 0 0 0 0 0 0 0 0 0 0 0 0 0 0 127 0" result="hardAlpha"/>
<feMorphology radius="7" operator="dilate" in="SourceAlpha" result="effect1_dropShadow_105_105"/>
<feOffset dy="4"/>
<feGaussianBlur stdDeviation="10"/>
<feComposite in2="hardAlpha" operator="out"/>
<feColorMatrix type="matrix" values="0 0 0 0 1 0 0 0 0 0.229167 0 0 0 0 0.691667 0 0 0 0.4 0"/>
<feBlend mode="normal" in2="BackgroundImageFix" result="effect1_dropShadow_105_105"/>
<feBlend mode="normal" in="SourceGraphic" in2="effect1_dropShadow_105_105" result="shape"/>
</filter>
<filter id="filter17_d_105_105" x="150" y="304" width="187" height="115" filterUnits="userSpaceOnUse" color-interpolation-filters="sRGB">
<feFlood flood-opacity="0" result="BackgroundImageFix"/>
<feColorMatrix in="SourceAlpha" type="matrix" values="0 0 0 0 0 0 0 0 0 0 0 0 0 0 0 0 0 0 127 0" result="hardAlpha"/>
<feMorphology radius="7" operator="dilate" in="SourceAlpha" result="effect1_dropShadow_105_105"/>
<feOffset dy="4"/>
<feGaussianBlur stdDeviation="10"/>
<feComposite in2="hardAlpha" operator="out"/>
<feColorMatrix type="matrix" values="0 0 0 0 1 0 0 0 0 0.229167 0 0 0 0 0.691667 0 0 0 0.4 0"/>
<feBlend mode="normal" in2="BackgroundImageFix" result="effect1_dropShadow_105_105"/>
<feBlend mode="normal" in="SourceGraphic" in2="effect1_dropShadow_105_105" result="shape"/>
</filter>
<filter id="filter18_d_105_105" x="450" y="380" width="186" height="114" filterUnits="userSpaceOnUse" color-interpolation-filters="sRGB">
<feFlood flood-opacity="0" result="BackgroundImageFix"/>
<feColorMatrix in="SourceAlpha" type="matrix" values="0 0 0 0 0 0 0 0 0 0 0 0 0 0 0 0 0 0 127 0" result="hardAlpha"/>
<feMorphology radius="7" operator="dilate" in="SourceAlpha" result="effect1_dropShadow_105_105"/>
<feOffset dy="4"/>
<feGaussianBlur stdDeviation="10"/>
<feComposite in2="hardAlpha" operator="out"/>
<feColorMatrix type="matrix" values="0 0 0 0 1 0 0 0 0 0.229167 0 0 0 0 0.691667 0 0 0 0.4 0"/>
<feBlend mode="normal" in2="BackgroundImageFix" result="effect1_dropShadow_105_105"/>
<feBlend mode="normal" in="SourceGraphic" in2="effect1_dropShadow_105_105" result="shape"/>
</filter>
<filter id="filter19_d_105_105" x="300" y="457" width="187" height="114" filterUnits="userSpaceOnUse" color-interpolation-filters="sRGB">
<feFlood flood-opacity="0" result="BackgroundImageFix"/>
<feColorMatrix in="SourceAlpha" type="matrix" values="0 0 0 0 0 0 0 0 0 0 0 0 0 0 0 0 0 0 127 0" result="hardAlpha"/>
<feMorphology radius="7" operator="dilate" in="SourceAlpha" result="effect1_dropShadow_105_105"/>
<feOffset dy="4"/>
<feGaussianBlur stdDeviation="10"/>
<feComposite in2="hardAlpha" operator="out"/>
<feColorMatrix type="matrix" values="0 0 0 0 1 0 0 0 0 0.229167 0 0 0 0 0.691667 0 0 0 0.4 0"/>
<feBlend mode="normal" in2="BackgroundImageFix" result="effect1_dropShadow_105_105"/>
<feBlend mode="normal" in="SourceGraphic" in2="effect1_dropShadow_105_105" result="shape"/>
</filter>
<filter id="filter20_d_105_105" x="300" y="380" width="187" height="114" filterUnits="userSpaceOnUse" color-interpolation-filters="sRGB">
<feFlood flood-opacity="0" result="BackgroundImageFix"/>
<feColorMatrix in="SourceAlpha" type="matrix" values="0 0 0 0 0 0 0 0 0 0 0 0 0 0 0 0 0 0 127 0" result="hardAlpha"/>
<feMorphology radius="7" operator="dilate" in="SourceAlpha" result="effect1_dropShadow_105_105"/>
<feOffset dy="4"/>
<feGaussianBlur stdDeviation="10"/>
<feComposite in2="hardAlpha" operator="out"/>
<feColorMatrix type="matrix" values="0 0 0 0 1 0 0 0 0 0.229167 0 0 0 0 0.691667 0 0 0 0.4 0"/>
<feBlend mode="normal" in2="BackgroundImageFix" result="effect1_dropShadow_105_105"/>
<feBlend mode="normal" in="SourceGraphic" in2="effect1_dropShadow_105_105" result="shape"/>
</filter>
<filter id="filter21_d_105_105" x="300" y="533" width="187" height="114" filterUnits="userSpaceOnUse" color-interpolation-filters="sRGB">
<feFlood flood-opacity="0" result="BackgroundImageFix"/>
<feColorMatrix in="SourceAlpha" type="matrix" values="0 0 0 0 0 0 0 0 0 0 0 0 0 0 0 0 0 0 127 0" result="hardAlpha"/>
<feMorphology radius="7" operator="dilate" in="SourceAlpha" result="effect1_dropShadow_105_105"/>
<feOffset dy="4"/>
<feGaussianBlur stdDeviation="10"/>
<feComposite in2="hardAlpha" operator="out"/>
<feColorMatrix type="matrix" values="0 0 0 0 1 0 0 0 0 0.229167 0 0 0 0 0.691667 0 0 0 0.4 0"/>
<feBlend mode="normal" in2="BackgroundImageFix" result="effect1_dropShadow_105_105"/>
<feBlend mode="normal" in="SourceGraphic" in2="effect1_dropShadow_105_105" result="shape"/>
</filter>
<filter id="filter22_d_105_105" x="0" y="609" width="636" height="114" filterUnits="userSpaceOnUse" color-interpolation-filters="sRGB">
<feFlood flood-opacity="0" result="BackgroundImageFix"/>
<feColorMatrix in="SourceAlpha" type="matrix" values="0 0 0 0 0 0 0 0 0 0 0 0 0 0 0 0 0 0 127 0" result="hardAlpha"/>
<feMorphology radius="7" operator="dilate" in="SourceAlpha" result="effect1_dropShadow_105_105"/>
<feOffset dy="4"/>
<feGaussianBlur stdDeviation="10"/>
<feComposite in2="hardAlpha" operator="out"/>
<feColorMatrix type="matrix" values="0 0 0 0 1 0 0 0 0 0.229167 0 0 0 0 0.691667 0 0 0 0.4 0"/>
<feBlend mode="normal" in2="BackgroundImageFix" result="effect1_dropShadow_105_105"/>
<feBlend mode="normal" in="SourceGraphic" in2="effect1_dropShadow_105_105" result="shape"/>
</filter>
<filter id="filter23_d_105_105" x="450" y="533" width="186" height="114" filterUnits="userSpaceOnUse" color-interpolation-filters="sRGB">
<feFlood flood-opacity="0" result="BackgroundImageFix"/>
<feColorMatrix in="SourceAlpha" type="matrix" values="0 0 0 0 0 0 0 0 0 0 0 0 0 0 0 0 0 0 127 0" result="hardAlpha"/>
<feMorphology radius="7" operator="dilate" in="SourceAlpha" result="effect1_dropShadow_105_105"/>
<feOffset dy="4"/>
<feGaussianBlur stdDeviation="10"/>
<feComposite in2="hardAlpha" operator="out"/>
<feColorMatrix type="matrix" values="0 0 0 0 1 0 0 0 0 0.229167 0 0 0 0 0.691667 0 0 0 0.4 0"/>
<feBlend mode="normal" in2="BackgroundImageFix" result="effect1_dropShadow_105_105"/>
<feBlend mode="normal" in="SourceGraphic" in2="effect1_dropShadow_105_105" result="shape"/>
</filter>
<filter id="filter24_d_105_105" x="450" y="457" width="186" height="114" filterUnits="userSpaceOnUse" color-interpolation-filters="sRGB">
<feFlood flood-opacity="0" result="BackgroundImageFix"/>
<feColorMatrix in="SourceAlpha" type="matrix" values="0 0 0 0 0 0 0 0 0 0 0 0 0 0 0 0 0 0 127 0" result="hardAlpha"/>
<feMorphology radius="7" operator="dilate" in="SourceAlpha" result="effect1_dropShadow_105_105"/>
<feOffset dy="4"/>
<feGaussianBlur stdDeviation="10"/>
<feComposite in2="hardAlpha" operator="out"/>
<feColorMatrix type="matrix" values="0 0 0 0 1 0 0 0 0 0.229167 0 0 0 0 0.691667 0 0 0 0.4 0"/>
<feBlend mode="normal" in2="BackgroundImageFix" result="effect1_dropShadow_105_105"/>
<feBlend mode="normal" in="SourceGraphic" in2="effect1_dropShadow_105_105" result="shape"/>
</filter>
<filter id="filter25_d_105_105" x="300" y="0" width="336" height="114" filterUnits="userSpaceOnUse" color-interpolation-filters="sRGB">
<feFlood flood-opacity="0" result="BackgroundImageFix"/>
<feColorMatrix in="SourceAlpha" type="matrix" values="0 0 0 0 0 0 0 0 0 0 0 0 0 0 0 0 0 0 127 0" result="hardAlpha"/>
<feMorphology radius="7" operator="dilate" in="SourceAlpha" result="effect1_dropShadow_105_105"/>
<feOffset dy="4"/>
<feGaussianBlur stdDeviation="10"/>
<feComposite in2="hardAlpha" operator="out"/>
<feColorMatrix type="matrix" values="0 0 0 0 1 0 0 0 0 0.229167 0 0 0 0 0.691667 0 0 0 0.4 0"/>
<feBlend mode="normal" in2="BackgroundImageFix" result="effect1_dropShadow_105_105"/>
<feBlend mode="normal" in="SourceGraphic" in2="effect1_dropShadow_105_105" result="shape"/>
</filter>
<filter id="filter26_d_105_105" x="0" y="380" width="186" height="114" filterUnits="userSpaceOnUse" color-interpolation-filters="sRGB">
<feFlood flood-opacity="0" result="BackgroundImageFix"/>
<feColorMatrix in="SourceAlpha" type="matrix" values="0 0 0 0 0 0 0 0 0 0 0 0 0 0 0 0 0 0 127 0" result="hardAlpha"/>
<feMorphology radius="7" operator="dilate" in="SourceAlpha" result="effect1_dropShadow_105_105"/>
<feOffset dy="4"/>
<feGaussianBlur stdDeviation="10"/>
<feComposite in2="hardAlpha" operator="out"/>
<feColorMatrix type="matrix" values="0 0 0 0 1 0 0 0 0 0.229167 0 0 0 0 0.691667 0 0 0 0.4 0"/>
<feBlend mode="normal" in2="BackgroundImageFix" result="effect1_dropShadow_105_105"/>
<feBlend mode="normal" in="SourceGraphic" in2="effect1_dropShadow_105_105" result="shape"/>
</filter>
<filter id="filter27_d_105_105" x="0" y="457" width="186" height="114" filterUnits="userSpaceOnUse" color-interpolation-filters="sRGB">
<feFlood flood-opacity="0" result="BackgroundImageFix"/>
<feColorMatrix in="SourceAlpha" type="matrix" values="0 0 0 0 0 0 0 0 0 0 0 0 0 0 0 0 0 0 127 0" result="hardAlpha"/>
<feMorphology radius="7" operator="dilate" in="SourceAlpha" result="effect1_dropShadow_105_105"/>
<feOffset dy="4"/>
<feGaussianBlur stdDeviation="10"/>
<feComposite in2="hardAlpha" operator="out"/>
<feColorMatrix type="matrix" values="0 0 0 0 1 0 0 0 0 0.229167 0 0 0 0 0.691667 0 0 0 0.4 0"/>
<feBlend mode="normal" in2="BackgroundImageFix" result="effect1_dropShadow_105_105"/>
<feBlend mode="normal" in="SourceGraphic" in2="effect1_dropShadow_105_105" result="shape"/>
</filter>
<filter id="filter28_d_105_105" x="0" y="533" width="186" height="114" filterUnits="userSpaceOnUse" color-interpolation-filters="sRGB">
<feFlood flood-opacity="0" result="BackgroundImageFix"/>
<feColorMatrix in="SourceAlpha" type="matrix" values="0 0 0 0 0 0 0 0 0 0 0 0 0 0 0 0 0 0 127 0" result="hardAlpha"/>
<feMorphology radius="7" operator="dilate" in="SourceAlpha" result="effect1_dropShadow_105_105"/>
<feOffset dy="4"/>
<feGaussianBlur stdDeviation="10"/>
<feComposite in2="hardAlpha" operator="out"/>
<feColorMatrix type="matrix" values="0 0 0 0 1 0 0 0 0 0.229167 0 0 0 0 0.691667 0 0 0 0.4 0"/>
<feBlend mode="normal" in2="BackgroundImageFix" result="effect1_dropShadow_105_105"/>
<feBlend mode="normal" in="SourceGraphic" in2="effect1_dropShadow_105_105" result="shape"/>
</filter>
<filter id="filter29_d_105_105" x="150" y="380" width="187" height="114" filterUnits="userSpaceOnUse" color-interpolation-filters="sRGB">
<feFlood flood-opacity="0" result="BackgroundImageFix"/>
<feColorMatrix in="SourceAlpha" type="matrix" values="0 0 0 0 0 0 0 0 0 0 0 0 0 0 0 0 0 0 127 0" result="hardAlpha"/>
<feMorphology radius="7" operator="dilate" in="SourceAlpha" result="effect1_dropShadow_105_105"/>
<feOffset dy="4"/>
<feGaussianBlur stdDeviation="10"/>
<feComposite in2="hardAlpha" operator="out"/>
<feColorMatrix type="matrix" values="0 0 0 0 1 0 0 0 0 0.229167 0 0 0 0 0.691667 0 0 0 0.4 0"/>
<feBlend mode="normal" in2="BackgroundImageFix" result="effect1_dropShadow_105_105"/>
<feBlend mode="normal" in="SourceGraphic" in2="effect1_dropShadow_105_105" result="shape"/>
</filter>
<filter id="filter30_d_105_105" x="150" y="457" width="187" height="114" filterUnits="userSpaceOnUse" color-interpolation-filters="sRGB">
<feFlood flood-opacity="0" result="BackgroundImageFix"/>
<feColorMatrix in="SourceAlpha" type="matrix" values="0 0 0 0 0 0 0 0 0 0 0 0 0 0 0 0 0 0 127 0" result="hardAlpha"/>
<feMorphology radius="7" operator="dilate" in="SourceAlpha" result="effect1_dropShadow_105_105"/>
<feOffset dy="4"/>
<feGaussianBlur stdDeviation="10"/>
<feComposite in2="hardAlpha" operator="out"/>
<feColorMatrix type="matrix" values="0 0 0 0 1 0 0 0 0 0.229167 0 0 0 0 0.691667 0 0 0 0.4 0"/>
<feBlend mode="normal" in2="BackgroundImageFix" result="effect1_dropShadow_105_105"/>
<feBlend mode="normal" in="SourceGraphic" in2="effect1_dropShadow_105_105" result="shape"/>
</filter>
<filter id="filter31_d_105_105" x="150" y="533" width="187" height="114" filterUnits="userSpaceOnUse" color-interpolation-filters="sRGB">
<feFlood flood-opacity="0" result="BackgroundImageFix"/>
<feColorMatrix in="SourceAlpha" type="matrix" values="0 0 0 0 0 0 0 0 0 0 0 0 0 0 0 0 0 0 127 0" result="hardAlpha"/>
<feMorphology radius="7" operator="dilate" in="SourceAlpha" result="effect1_dropShadow_105_105"/>
<feOffset dy="4"/>
<feGaussianBlur stdDeviation="10"/>
<feComposite in2="hardAlpha" operator="out"/>
<feColorMatrix type="matrix" values="0 0 0 0 1 0 0 0 0 0.229167 0 0 0 0 0.691667 0 0 0 0.4 0"/>
<feBlend mode="normal" in2="BackgroundImageFix" result="effect1_dropShadow_105_105"/>
<feBlend mode="normal" in="SourceGraphic" in2="effect1_dropShadow_105_105" result="shape"/>
</filter>
</defs>
</svg>
